<mxfile host="app.diagrams.net" modified="2022-08-31T17:50:53.641Z" agent="5.0 (Windows NT 6.1) AppleWebKit/537.36 (KHTML, like Gecko) Chrome/104.0.0.0 Safari/537.36" etag="YmAURiPfbrrBjyHUR5Ow" version="20.2.7" type="github">
  <diagram id="7kIaCluWYzM5s_wcC8OB" name="Página-1">
    <mxGraphModel dx="1157" dy="643" grid="1" gridSize="10" guides="1" tooltips="1" connect="1" arrows="1" fold="1" page="1" pageScale="1" pageWidth="1169" pageHeight="827" math="0" shadow="0">
      <root>
        <mxCell id="0" />
        <mxCell id="1" parent="0" />
        <mxCell id="agDxDxOGez-dhJYS4ttz-14" value="" style="group" parent="1" vertex="1" connectable="0">
          <mxGeometry x="787" y="39" width="167" height="310" as="geometry" />
        </mxCell>
        <mxCell id="agDxDxOGez-dhJYS4ttz-1" value="Produto" style="swimlane;fontStyle=1" parent="agDxDxOGez-dhJYS4ttz-14" vertex="1">
          <mxGeometry x="7" width="160" height="310" as="geometry" />
        </mxCell>
        <mxCell id="agDxDxOGez-dhJYS4ttz-12" value="+&lt;span style=&quot;color: rgb(102, 0, 204);&quot;&gt;String&amp;nbsp;&lt;/span&gt;localEstoque" style="text;html=1;align=center;verticalAlign=middle;resizable=0;points=[];autosize=1;strokeColor=none;fillColor=none;fontStyle=1" parent="agDxDxOGez-dhJYS4ttz-1" vertex="1">
          <mxGeometry x="11" y="257" width="140" height="30" as="geometry" />
        </mxCell>
        <mxCell id="agDxDxOGez-dhJYS4ttz-13" value="+&lt;span style=&quot;color: rgb(102, 0, 204);&quot;&gt;ENUN&amp;nbsp;&lt;/span&gt;grupo" style="text;html=1;align=center;verticalAlign=middle;resizable=0;points=[];autosize=1;strokeColor=none;fillColor=none;fontStyle=1" parent="agDxDxOGez-dhJYS4ttz-1" vertex="1">
          <mxGeometry x="11" y="275" width="100" height="30" as="geometry" />
        </mxCell>
        <mxCell id="agDxDxOGez-dhJYS4ttz-8" value="+&lt;span style=&quot;color: rgb(102, 0, 204);&quot;&gt;String&amp;nbsp;&lt;/span&gt;&lt;font color=&quot;#08000f&quot;&gt;aplicacao&lt;/font&gt;" style="text;html=1;align=center;verticalAlign=middle;resizable=0;points=[];autosize=1;strokeColor=none;fillColor=none;fontStyle=1" parent="agDxDxOGez-dhJYS4ttz-1" vertex="1">
          <mxGeometry x="11" y="169" width="120" height="30" as="geometry" />
        </mxCell>
        <mxCell id="agDxDxOGez-dhJYS4ttz-2" value="+&lt;font color=&quot;#4c0099&quot;&gt;UUID &lt;/font&gt;idProduto" style="text;html=1;align=center;verticalAlign=middle;resizable=0;points=[];autosize=1;strokeColor=none;fillColor=none;fontStyle=1" parent="agDxDxOGez-dhJYS4ttz-14" vertex="1">
          <mxGeometry x="15" y="29" width="120" height="30" as="geometry" />
        </mxCell>
        <mxCell id="agDxDxOGez-dhJYS4ttz-3" value="+&lt;font color=&quot;#6600cc&quot;&gt;Int&amp;nbsp;&lt;/font&gt;codigo" style="text;html=1;align=center;verticalAlign=middle;resizable=0;points=[];autosize=1;strokeColor=none;fillColor=none;fontStyle=1" parent="agDxDxOGez-dhJYS4ttz-14" vertex="1">
          <mxGeometry x="15" y="49" width="90" height="30" as="geometry" />
        </mxCell>
        <mxCell id="agDxDxOGez-dhJYS4ttz-4" value="+&lt;font color=&quot;#6600cc&quot;&gt;String &lt;/font&gt;descricao" style="text;html=1;align=center;verticalAlign=middle;resizable=0;points=[];autosize=1;strokeColor=none;fillColor=none;fontStyle=1" parent="agDxDxOGez-dhJYS4ttz-14" vertex="1">
          <mxGeometry x="17" y="71" width="120" height="30" as="geometry" />
        </mxCell>
        <mxCell id="agDxDxOGez-dhJYS4ttz-5" value="+&lt;span style=&quot;color: rgb(102, 0, 204);&quot;&gt;String&amp;nbsp;&lt;/span&gt;referencia" style="text;html=1;align=center;verticalAlign=middle;resizable=0;points=[];autosize=1;strokeColor=none;fillColor=none;fontStyle=1" parent="agDxDxOGez-dhJYS4ttz-14" vertex="1">
          <mxGeometry x="12" y="119" width="130" height="30" as="geometry" />
        </mxCell>
        <mxCell id="agDxDxOGez-dhJYS4ttz-6" value="+&lt;span style=&quot;color: rgb(102, 0, 204);&quot;&gt;String&amp;nbsp;&lt;/span&gt;fabricante" style="text;html=1;align=center;verticalAlign=middle;resizable=0;points=[];autosize=1;strokeColor=none;fillColor=none;fontStyle=1" parent="agDxDxOGez-dhJYS4ttz-14" vertex="1">
          <mxGeometry x="12" y="144" width="130" height="30" as="geometry" />
        </mxCell>
        <mxCell id="agDxDxOGez-dhJYS4ttz-9" value="+&lt;font color=&quot;#6600cc&quot;&gt;Doble &lt;/font&gt;preço" style="text;html=1;align=center;verticalAlign=middle;resizable=0;points=[];autosize=1;strokeColor=none;fillColor=none;fontStyle=1" parent="agDxDxOGez-dhJYS4ttz-14" vertex="1">
          <mxGeometry x="17" y="191" width="100" height="30" as="geometry" />
        </mxCell>
        <mxCell id="agDxDxOGez-dhJYS4ttz-10" value="+&lt;font color=&quot;#6600cc&quot;&gt;Static Int &lt;/font&gt;estoque" style="text;html=1;align=center;verticalAlign=middle;resizable=0;points=[];autosize=1;strokeColor=none;fillColor=none;fontStyle=1" parent="agDxDxOGez-dhJYS4ttz-14" vertex="1">
          <mxGeometry x="17" y="213" width="130" height="30" as="geometry" />
        </mxCell>
        <mxCell id="agDxDxOGez-dhJYS4ttz-11" value="+&lt;span style=&quot;color: rgb(102, 0, 204);&quot;&gt;ENUN&amp;nbsp;&lt;/span&gt;tipo" style="text;html=1;align=center;verticalAlign=middle;resizable=0;points=[];autosize=1;strokeColor=none;fillColor=none;fontStyle=1" parent="agDxDxOGez-dhJYS4ttz-14" vertex="1">
          <mxGeometry x="16" y="236" width="90" height="30" as="geometry" />
        </mxCell>
        <mxCell id="cl13_IeFR8ZdHBrL8a40-8" value="&lt;span style=&quot;color: rgb(0, 0, 0); font-family: Helvetica; font-size: 12px; font-style: normal; font-variant-ligatures: normal; font-variant-caps: normal; font-weight: 700; letter-spacing: normal; orphans: 2; text-align: center; text-indent: 0px; text-transform: none; widows: 2; word-spacing: 0px; -webkit-text-stroke-width: 0px; background-color: rgb(248, 249, 250); text-decoration-thickness: initial; text-decoration-style: initial; text-decoration-color: initial; float: none; display: inline !important;&quot;&gt;+&lt;/span&gt;&lt;font color=&quot;#4c0099&quot; style=&quot;font-family: Helvetica; font-size: 12px; font-style: normal; font-variant-ligatures: normal; font-variant-caps: normal; font-weight: 700; letter-spacing: normal; orphans: 2; text-align: center; text-indent: 0px; text-transform: none; widows: 2; word-spacing: 0px; -webkit-text-stroke-width: 0px; background-color: rgb(248, 249, 250); text-decoration-thickness: initial; text-decoration-style: initial; text-decoration-color: initial;&quot;&gt;UUID&lt;/font&gt;&lt;span style=&quot;color: rgb(0, 0, 0); font-family: Helvetica; font-size: 12px; font-style: normal; font-variant-ligatures: normal; font-variant-caps: normal; font-weight: 700; letter-spacing: normal; orphans: 2; text-align: center; text-indent: 0px; text-transform: none; widows: 2; word-spacing: 0px; -webkit-text-stroke-width: 0px; background-color: rgb(248, 249, 250); text-decoration-thickness: initial; text-decoration-style: initial; text-decoration-color: initial; float: none; display: inline !important;&quot;&gt;&lt;span&gt;&amp;nbsp;&lt;/span&gt;idEmpresa&lt;/span&gt;" style="text;whiteSpace=wrap;html=1;fontColor=#08000F;" parent="agDxDxOGez-dhJYS4ttz-14" vertex="1">
          <mxGeometry x="27" y="95" width="100" height="24" as="geometry" />
        </mxCell>
        <mxCell id="NHJTBdeGV2len6277dxj-1" style="edgeStyle=orthogonalEdgeStyle;rounded=0;orthogonalLoop=1;jettySize=auto;html=1;exitX=0;exitY=0.5;exitDx=0;exitDy=0;entryX=0;entryY=0.5;entryDx=0;entryDy=0;" edge="1" parent="1" source="agDxDxOGez-dhJYS4ttz-15" target="cl13_IeFR8ZdHBrL8a40-1">
          <mxGeometry relative="1" as="geometry">
            <Array as="points">
              <mxPoint x="130" y="200" />
              <mxPoint x="130" y="810" />
            </Array>
          </mxGeometry>
        </mxCell>
        <mxCell id="agDxDxOGez-dhJYS4ttz-15" value="Cliente" style="swimlane;fontColor=#08000F;" parent="1" vertex="1">
          <mxGeometry x="167" y="69" width="200" height="261" as="geometry" />
        </mxCell>
        <mxCell id="agDxDxOGez-dhJYS4ttz-16" value="&lt;span style=&quot;color: rgb(0, 0, 0); font-family: Helvetica; font-size: 12px; font-style: normal; font-variant-ligatures: normal; font-variant-caps: normal; font-weight: 700; letter-spacing: normal; orphans: 2; text-align: center; text-indent: 0px; text-transform: none; widows: 2; word-spacing: 0px; -webkit-text-stroke-width: 0px; background-color: rgb(248, 249, 250); text-decoration-thickness: initial; text-decoration-style: initial; text-decoration-color: initial; float: none; display: inline !important;&quot;&gt;+&lt;/span&gt;&lt;font color=&quot;#4c0099&quot; style=&quot;font-family: Helvetica; font-size: 12px; font-style: normal; font-variant-ligatures: normal; font-variant-caps: normal; font-weight: 700; letter-spacing: normal; orphans: 2; text-align: center; text-indent: 0px; text-transform: none; widows: 2; word-spacing: 0px; -webkit-text-stroke-width: 0px; background-color: rgb(248, 249, 250); text-decoration-thickness: initial; text-decoration-style: initial; text-decoration-color: initial;&quot;&gt;UUID&lt;/font&gt;&lt;span style=&quot;color: rgb(0, 0, 0); font-family: Helvetica; font-size: 12px; font-style: normal; font-variant-ligatures: normal; font-variant-caps: normal; font-weight: 700; letter-spacing: normal; orphans: 2; text-align: center; text-indent: 0px; text-transform: none; widows: 2; word-spacing: 0px; -webkit-text-stroke-width: 0px; background-color: rgb(248, 249, 250); text-decoration-thickness: initial; text-decoration-style: initial; text-decoration-color: initial; float: none; display: inline !important;&quot;&gt;&lt;span&gt;&amp;nbsp;&lt;/span&gt;idCliente&lt;/span&gt;" style="text;whiteSpace=wrap;html=1;fontColor=#08000F;" parent="agDxDxOGez-dhJYS4ttz-15" vertex="1">
          <mxGeometry x="10" y="26" width="100" height="24" as="geometry" />
        </mxCell>
        <mxCell id="agDxDxOGez-dhJYS4ttz-17" value="&lt;span style=&quot;font-family: Helvetica; font-size: 12px; font-style: normal; font-variant-ligatures: normal; font-variant-caps: normal; font-weight: 700; letter-spacing: normal; orphans: 2; text-align: center; text-indent: 0px; text-transform: none; widows: 2; word-spacing: 0px; -webkit-text-stroke-width: 0px; background-color: rgb(248, 249, 250); text-decoration-thickness: initial; text-decoration-style: initial; text-decoration-color: initial; float: none; display: inline !important; color: rgb(0, 0, 0);&quot;&gt;+&lt;/span&gt;&lt;span style=&quot;font-family: Helvetica; font-size: 12px; font-style: normal; font-variant-ligatures: normal; font-variant-caps: normal; font-weight: 700; letter-spacing: normal; orphans: 2; text-align: center; text-indent: 0px; text-transform: none; widows: 2; word-spacing: 0px; -webkit-text-stroke-width: 0px; background-color: rgb(248, 249, 250); text-decoration-thickness: initial; text-decoration-style: initial; text-decoration-color: initial; float: none; display: inline !important;&quot;&gt;&lt;font color=&quot;#4c0099&quot;&gt;String &lt;/font&gt;&lt;font color=&quot;#000000&quot;&gt;nome&lt;/font&gt;&lt;/span&gt;" style="text;whiteSpace=wrap;html=1;fontColor=#08000F;" parent="agDxDxOGez-dhJYS4ttz-15" vertex="1">
          <mxGeometry x="10" y="67" width="80" height="24" as="geometry" />
        </mxCell>
        <mxCell id="agDxDxOGez-dhJYS4ttz-18" value="&lt;span style=&quot;color: rgb(0, 0, 0); font-family: Helvetica; font-size: 12px; font-style: normal; font-variant-ligatures: normal; font-variant-caps: normal; font-weight: 700; letter-spacing: normal; orphans: 2; text-align: center; text-indent: 0px; text-transform: none; widows: 2; word-spacing: 0px; -webkit-text-stroke-width: 0px; background-color: rgb(248, 249, 250); text-decoration-thickness: initial; text-decoration-style: initial; text-decoration-color: initial; float: none; display: inline !important;&quot;&gt;+&lt;/span&gt;&lt;span style=&quot;font-family: Helvetica; font-size: 12px; font-style: normal; font-variant-ligatures: normal; font-variant-caps: normal; font-weight: 700; letter-spacing: normal; orphans: 2; text-align: center; text-indent: 0px; text-transform: none; widows: 2; word-spacing: 0px; -webkit-text-stroke-width: 0px; background-color: rgb(248, 249, 250); text-decoration-thickness: initial; text-decoration-style: initial; text-decoration-color: initial; float: none; display: inline !important;&quot;&gt;&lt;font color=&quot;#4c0099&quot;&gt;String &lt;/font&gt;&lt;font color=&quot;#000000&quot;&gt;cpf&lt;/font&gt;&lt;/span&gt;" style="text;whiteSpace=wrap;html=1;fontColor=#08000F;" parent="agDxDxOGez-dhJYS4ttz-15" vertex="1">
          <mxGeometry x="10" y="91" width="80" height="24" as="geometry" />
        </mxCell>
        <mxCell id="agDxDxOGez-dhJYS4ttz-19" value="&lt;span style=&quot;color: rgb(0, 0, 0); font-family: Helvetica; font-size: 12px; font-style: normal; font-variant-ligatures: normal; font-variant-caps: normal; font-weight: 700; letter-spacing: normal; orphans: 2; text-align: center; text-indent: 0px; text-transform: none; widows: 2; word-spacing: 0px; -webkit-text-stroke-width: 0px; background-color: rgb(248, 249, 250); text-decoration-thickness: initial; text-decoration-style: initial; text-decoration-color: initial; float: none; display: inline !important;&quot;&gt;+&lt;/span&gt;&lt;span style=&quot;font-family: Helvetica; font-size: 12px; font-style: normal; font-variant-ligatures: normal; font-variant-caps: normal; font-weight: 700; letter-spacing: normal; orphans: 2; text-align: center; text-indent: 0px; text-transform: none; widows: 2; word-spacing: 0px; -webkit-text-stroke-width: 0px; background-color: rgb(248, 249, 250); text-decoration-thickness: initial; text-decoration-style: initial; text-decoration-color: initial; float: none; display: inline !important;&quot;&gt;&lt;font color=&quot;#4c0099&quot;&gt;String &lt;/font&gt;&lt;font color=&quot;#000000&quot;&gt;razaoSocial&lt;/font&gt;&lt;/span&gt;" style="text;whiteSpace=wrap;html=1;fontColor=#08000F;" parent="agDxDxOGez-dhJYS4ttz-15" vertex="1">
          <mxGeometry x="10" y="115" width="120" height="24" as="geometry" />
        </mxCell>
        <mxCell id="agDxDxOGez-dhJYS4ttz-20" value="&lt;span style=&quot;color: rgb(0, 0, 0); font-family: Helvetica; font-size: 12px; font-style: normal; font-variant-ligatures: normal; font-variant-caps: normal; font-weight: 700; letter-spacing: normal; orphans: 2; text-align: center; text-indent: 0px; text-transform: none; widows: 2; word-spacing: 0px; -webkit-text-stroke-width: 0px; background-color: rgb(248, 249, 250); text-decoration-thickness: initial; text-decoration-style: initial; text-decoration-color: initial; float: none; display: inline !important;&quot;&gt;+&lt;/span&gt;&lt;span style=&quot;font-family: Helvetica; font-size: 12px; font-style: normal; font-variant-ligatures: normal; font-variant-caps: normal; font-weight: 700; letter-spacing: normal; orphans: 2; text-align: center; text-indent: 0px; text-transform: none; widows: 2; word-spacing: 0px; -webkit-text-stroke-width: 0px; background-color: rgb(248, 249, 250); text-decoration-thickness: initial; text-decoration-style: initial; text-decoration-color: initial; float: none; display: inline !important;&quot;&gt;&lt;font color=&quot;#4c0099&quot;&gt;String &lt;/font&gt;&lt;font color=&quot;#000000&quot;&gt;email&lt;/font&gt;&lt;/span&gt;" style="text;whiteSpace=wrap;html=1;fontColor=#08000F;" parent="agDxDxOGez-dhJYS4ttz-15" vertex="1">
          <mxGeometry x="10" y="137" width="80" height="24" as="geometry" />
        </mxCell>
        <mxCell id="agDxDxOGez-dhJYS4ttz-22" value="&lt;span style=&quot;font-family: Helvetica; font-size: 12px; font-style: normal; font-variant-ligatures: normal; font-variant-caps: normal; font-weight: 700; letter-spacing: normal; orphans: 2; text-align: center; text-indent: 0px; text-transform: none; widows: 2; word-spacing: 0px; -webkit-text-stroke-width: 0px; background-color: rgb(248, 249, 250); text-decoration-thickness: initial; text-decoration-style: initial; text-decoration-color: initial; float: none; display: inline !important; color: rgb(0, 0, 0);&quot;&gt;+&lt;/span&gt;&lt;span style=&quot;font-family: Helvetica; font-size: 12px; font-style: normal; font-variant-ligatures: normal; font-variant-caps: normal; font-weight: 700; letter-spacing: normal; orphans: 2; text-align: center; text-indent: 0px; text-transform: none; widows: 2; word-spacing: 0px; -webkit-text-stroke-width: 0px; background-color: rgb(248, 249, 250); text-decoration-thickness: initial; text-decoration-style: initial; text-decoration-color: initial; float: none; display: inline !important;&quot;&gt;&lt;font color=&quot;#4c0099&quot;&gt;String &lt;/font&gt;&lt;font color=&quot;#000000&quot;&gt;telefone&lt;/font&gt;&lt;/span&gt;" style="text;whiteSpace=wrap;html=1;fontColor=#08000F;" parent="agDxDxOGez-dhJYS4ttz-15" vertex="1">
          <mxGeometry x="10" y="161" width="120" height="24" as="geometry" />
        </mxCell>
        <mxCell id="agDxDxOGez-dhJYS4ttz-23" value="&lt;span style=&quot;font-family: Helvetica; font-size: 12px; font-style: normal; font-variant-ligatures: normal; font-variant-caps: normal; font-weight: 700; letter-spacing: normal; orphans: 2; text-align: center; text-indent: 0px; text-transform: none; widows: 2; word-spacing: 0px; -webkit-text-stroke-width: 0px; background-color: rgb(248, 249, 250); text-decoration-thickness: initial; text-decoration-style: initial; text-decoration-color: initial; float: none; display: inline !important; color: rgb(0, 0, 0);&quot;&gt;+&lt;/span&gt;&lt;span style=&quot;font-family: Helvetica; font-size: 12px; font-style: normal; font-variant-ligatures: normal; font-variant-caps: normal; font-weight: 700; letter-spacing: normal; orphans: 2; text-align: center; text-indent: 0px; text-transform: none; widows: 2; word-spacing: 0px; -webkit-text-stroke-width: 0px; background-color: rgb(248, 249, 250); text-decoration-thickness: initial; text-decoration-style: initial; text-decoration-color: initial; float: none; display: inline !important;&quot;&gt;&lt;font color=&quot;#4c0099&quot;&gt;String &lt;/font&gt;&lt;font color=&quot;#000000&quot;&gt;celular&lt;/font&gt;&lt;/span&gt;" style="text;whiteSpace=wrap;html=1;fontColor=#08000F;" parent="agDxDxOGez-dhJYS4ttz-15" vertex="1">
          <mxGeometry x="10" y="185" width="120" height="24" as="geometry" />
        </mxCell>
        <mxCell id="agDxDxOGez-dhJYS4ttz-24" value="&lt;span style=&quot;font-family: Helvetica; font-size: 12px; font-style: normal; font-variant-ligatures: normal; font-variant-caps: normal; font-weight: 700; letter-spacing: normal; orphans: 2; text-align: center; text-indent: 0px; text-transform: none; widows: 2; word-spacing: 0px; -webkit-text-stroke-width: 0px; background-color: rgb(248, 249, 250); text-decoration-thickness: initial; text-decoration-style: initial; text-decoration-color: initial; float: none; display: inline !important; color: rgb(0, 0, 0);&quot;&gt;+&lt;/span&gt;&lt;span style=&quot;font-family: Helvetica; font-size: 12px; font-style: normal; font-variant-ligatures: normal; font-variant-caps: normal; font-weight: 700; letter-spacing: normal; orphans: 2; text-align: center; text-indent: 0px; text-transform: none; widows: 2; word-spacing: 0px; -webkit-text-stroke-width: 0px; background-color: rgb(248, 249, 250); text-decoration-thickness: initial; text-decoration-style: initial; text-decoration-color: initial; float: none; display: inline !important;&quot;&gt;&lt;font color=&quot;#4c0099&quot;&gt;ENUN &lt;/font&gt;&lt;font color=&quot;#000000&quot;&gt;sexo&lt;/font&gt;&lt;/span&gt;" style="text;whiteSpace=wrap;html=1;fontColor=#08000F;" parent="agDxDxOGez-dhJYS4ttz-15" vertex="1">
          <mxGeometry x="10" y="209" width="120" height="24" as="geometry" />
        </mxCell>
        <mxCell id="agDxDxOGez-dhJYS4ttz-55" value="&lt;span style=&quot;color: rgb(0, 0, 0); font-family: Helvetica; font-size: 12px; font-style: normal; font-variant-ligatures: normal; font-variant-caps: normal; font-weight: 700; letter-spacing: normal; orphans: 2; text-align: center; text-indent: 0px; text-transform: none; widows: 2; word-spacing: 0px; -webkit-text-stroke-width: 0px; background-color: rgb(248, 249, 250); text-decoration-thickness: initial; text-decoration-style: initial; text-decoration-color: initial; float: none; display: inline !important;&quot;&gt;+&lt;/span&gt;&lt;span style=&quot;font-family: Helvetica; font-size: 12px; font-style: normal; font-variant-ligatures: normal; font-variant-caps: normal; font-weight: 700; letter-spacing: normal; orphans: 2; text-align: center; text-indent: 0px; text-transform: none; widows: 2; word-spacing: 0px; -webkit-text-stroke-width: 0px; background-color: rgb(248, 249, 250); text-decoration-thickness: initial; text-decoration-style: initial; text-decoration-color: initial; float: none; display: inline !important;&quot;&gt;&lt;font color=&quot;#4c0099&quot;&gt;Int &lt;/font&gt;&lt;font color=&quot;#000000&quot;&gt;limite&lt;/font&gt;&lt;/span&gt;" style="text;whiteSpace=wrap;html=1;fontColor=#08000F;" parent="agDxDxOGez-dhJYS4ttz-15" vertex="1">
          <mxGeometry x="11" y="228" width="104" height="24" as="geometry" />
        </mxCell>
        <mxCell id="agDxDxOGez-dhJYS4ttz-34" value="" style="group" parent="1" vertex="1" connectable="0">
          <mxGeometry x="497" y="119" width="200" height="200" as="geometry" />
        </mxCell>
        <mxCell id="agDxDxOGez-dhJYS4ttz-25" value="Endereco" style="swimlane;fontColor=#000000;" parent="agDxDxOGez-dhJYS4ttz-34" vertex="1">
          <mxGeometry width="200" height="200" as="geometry" />
        </mxCell>
        <mxCell id="agDxDxOGez-dhJYS4ttz-26" value="&lt;span style=&quot;color: rgb(0, 0, 0); font-family: Helvetica; font-size: 12px; font-style: normal; font-variant-ligatures: normal; font-variant-caps: normal; font-weight: 700; letter-spacing: normal; orphans: 2; text-align: center; text-indent: 0px; text-transform: none; widows: 2; word-spacing: 0px; -webkit-text-stroke-width: 0px; background-color: rgb(248, 249, 250); text-decoration-thickness: initial; text-decoration-style: initial; text-decoration-color: initial; float: none; display: inline !important;&quot;&gt;+&lt;/span&gt;&lt;font color=&quot;#4c0099&quot; style=&quot;font-family: Helvetica; font-size: 12px; font-style: normal; font-variant-ligatures: normal; font-variant-caps: normal; font-weight: 700; letter-spacing: normal; orphans: 2; text-align: center; text-indent: 0px; text-transform: none; widows: 2; word-spacing: 0px; -webkit-text-stroke-width: 0px; background-color: rgb(248, 249, 250); text-decoration-thickness: initial; text-decoration-style: initial; text-decoration-color: initial;&quot;&gt;UUID&lt;/font&gt;&lt;span style=&quot;color: rgb(0, 0, 0); font-family: Helvetica; font-size: 12px; font-style: normal; font-variant-ligatures: normal; font-variant-caps: normal; font-weight: 700; letter-spacing: normal; orphans: 2; text-align: center; text-indent: 0px; text-transform: none; widows: 2; word-spacing: 0px; -webkit-text-stroke-width: 0px; background-color: rgb(248, 249, 250); text-decoration-thickness: initial; text-decoration-style: initial; text-decoration-color: initial; float: none; display: inline !important;&quot;&gt;&lt;span&gt;&amp;nbsp;&lt;/span&gt;idEndereco&lt;/span&gt;" style="text;whiteSpace=wrap;html=1;fontColor=#08000F;" parent="agDxDxOGez-dhJYS4ttz-25" vertex="1">
          <mxGeometry x="6" y="30" width="80" height="24" as="geometry" />
        </mxCell>
        <mxCell id="agDxDxOGez-dhJYS4ttz-27" value="&lt;span style=&quot;color: rgb(0, 0, 0); font-family: Helvetica; font-size: 12px; font-style: normal; font-variant-ligatures: normal; font-variant-caps: normal; font-weight: 700; letter-spacing: normal; orphans: 2; text-align: center; text-indent: 0px; text-transform: none; widows: 2; word-spacing: 0px; -webkit-text-stroke-width: 0px; background-color: rgb(248, 249, 250); text-decoration-thickness: initial; text-decoration-style: initial; text-decoration-color: initial; float: none; display: inline !important;&quot;&gt;+&lt;/span&gt;&lt;font color=&quot;#4c0099&quot; style=&quot;font-family: Helvetica; font-size: 12px; font-style: normal; font-variant-ligatures: normal; font-variant-caps: normal; font-weight: 700; letter-spacing: normal; orphans: 2; text-align: center; text-indent: 0px; text-transform: none; widows: 2; word-spacing: 0px; -webkit-text-stroke-width: 0px; background-color: rgb(248, 249, 250); text-decoration-thickness: initial; text-decoration-style: initial; text-decoration-color: initial;&quot;&gt;UUID&lt;/font&gt;&lt;span style=&quot;color: rgb(0, 0, 0); font-family: Helvetica; font-size: 12px; font-style: normal; font-variant-ligatures: normal; font-variant-caps: normal; font-weight: 700; letter-spacing: normal; orphans: 2; text-align: center; text-indent: 0px; text-transform: none; widows: 2; word-spacing: 0px; -webkit-text-stroke-width: 0px; background-color: rgb(248, 249, 250); text-decoration-thickness: initial; text-decoration-style: initial; text-decoration-color: initial; float: none; display: inline !important;&quot;&gt;&lt;span&gt;&amp;nbsp;idCliente&lt;/span&gt;&lt;/span&gt;" style="text;whiteSpace=wrap;html=1;fontColor=#08000F;" parent="agDxDxOGez-dhJYS4ttz-25" vertex="1">
          <mxGeometry x="6" y="51" width="104" height="24" as="geometry" />
        </mxCell>
        <mxCell id="agDxDxOGez-dhJYS4ttz-30" value="&lt;span style=&quot;color: rgb(0, 0, 0); font-family: Helvetica; font-size: 12px; font-style: normal; font-variant-ligatures: normal; font-variant-caps: normal; font-weight: 700; letter-spacing: normal; orphans: 2; text-align: center; text-indent: 0px; text-transform: none; widows: 2; word-spacing: 0px; -webkit-text-stroke-width: 0px; background-color: rgb(248, 249, 250); text-decoration-thickness: initial; text-decoration-style: initial; text-decoration-color: initial; float: none; display: inline !important;&quot;&gt;+&lt;/span&gt;&lt;span style=&quot;font-family: Helvetica; font-size: 12px; font-style: normal; font-variant-ligatures: normal; font-variant-caps: normal; font-weight: 700; letter-spacing: normal; orphans: 2; text-align: center; text-indent: 0px; text-transform: none; widows: 2; word-spacing: 0px; -webkit-text-stroke-width: 0px; background-color: rgb(248, 249, 250); text-decoration-thickness: initial; text-decoration-style: initial; text-decoration-color: initial; float: none; display: inline !important;&quot;&gt;&lt;font color=&quot;#4c0099&quot;&gt;Int&amp;nbsp;&lt;/font&gt;&lt;font color=&quot;#000000&quot;&gt;numero&lt;/font&gt;&lt;/span&gt;" style="text;whiteSpace=wrap;html=1;fontColor=#08000F;" parent="agDxDxOGez-dhJYS4ttz-25" vertex="1">
          <mxGeometry x="6" y="69" width="104" height="24" as="geometry" />
        </mxCell>
        <mxCell id="agDxDxOGez-dhJYS4ttz-31" value="&lt;span style=&quot;color: rgb(0, 0, 0); font-family: Helvetica; font-size: 12px; font-style: normal; font-variant-ligatures: normal; font-variant-caps: normal; font-weight: 700; letter-spacing: normal; orphans: 2; text-align: center; text-indent: 0px; text-transform: none; widows: 2; word-spacing: 0px; -webkit-text-stroke-width: 0px; background-color: rgb(248, 249, 250); text-decoration-thickness: initial; text-decoration-style: initial; text-decoration-color: initial; float: none; display: inline !important;&quot;&gt;+&lt;/span&gt;&lt;span style=&quot;font-family: Helvetica; font-size: 12px; font-style: normal; font-variant-ligatures: normal; font-variant-caps: normal; font-weight: 700; letter-spacing: normal; orphans: 2; text-align: center; text-indent: 0px; text-transform: none; widows: 2; word-spacing: 0px; -webkit-text-stroke-width: 0px; background-color: rgb(248, 249, 250); text-decoration-thickness: initial; text-decoration-style: initial; text-decoration-color: initial; float: none; display: inline !important;&quot;&gt;&lt;font color=&quot;#4c0099&quot;&gt;String &lt;/font&gt;&lt;font color=&quot;#000000&quot;&gt;cidade&lt;/font&gt;&lt;/span&gt;" style="text;whiteSpace=wrap;html=1;fontColor=#08000F;" parent="agDxDxOGez-dhJYS4ttz-25" vertex="1">
          <mxGeometry x="6" y="125" width="144" height="24" as="geometry" />
        </mxCell>
        <mxCell id="agDxDxOGez-dhJYS4ttz-33" value="&lt;span style=&quot;color: rgb(0, 0, 0); font-family: Helvetica; font-size: 12px; font-style: normal; font-variant-ligatures: normal; font-variant-caps: normal; font-weight: 700; letter-spacing: normal; orphans: 2; text-align: center; text-indent: 0px; text-transform: none; widows: 2; word-spacing: 0px; -webkit-text-stroke-width: 0px; background-color: rgb(248, 249, 250); text-decoration-thickness: initial; text-decoration-style: initial; text-decoration-color: initial; float: none; display: inline !important;&quot;&gt;+&lt;/span&gt;&lt;span style=&quot;font-family: Helvetica; font-size: 12px; font-style: normal; font-variant-ligatures: normal; font-variant-caps: normal; font-weight: 700; letter-spacing: normal; orphans: 2; text-align: center; text-indent: 0px; text-transform: none; widows: 2; word-spacing: 0px; -webkit-text-stroke-width: 0px; background-color: rgb(248, 249, 250); text-decoration-thickness: initial; text-decoration-style: initial; text-decoration-color: initial; float: none; display: inline !important;&quot;&gt;&lt;font color=&quot;#4c0099&quot;&gt;String &lt;/font&gt;&lt;font color=&quot;#000000&quot;&gt;referencia&lt;/font&gt;&lt;/span&gt;" style="text;whiteSpace=wrap;html=1;fontColor=#08000F;" parent="agDxDxOGez-dhJYS4ttz-25" vertex="1">
          <mxGeometry x="5" y="159" width="144" height="24" as="geometry" />
        </mxCell>
        <mxCell id="agDxDxOGez-dhJYS4ttz-28" value="&lt;span style=&quot;color: rgb(0, 0, 0); font-family: Helvetica; font-size: 12px; font-style: normal; font-variant-ligatures: normal; font-variant-caps: normal; font-weight: 700; letter-spacing: normal; orphans: 2; text-align: center; text-indent: 0px; text-transform: none; widows: 2; word-spacing: 0px; -webkit-text-stroke-width: 0px; background-color: rgb(248, 249, 250); text-decoration-thickness: initial; text-decoration-style: initial; text-decoration-color: initial; float: none; display: inline !important;&quot;&gt;+&lt;/span&gt;&lt;span style=&quot;font-family: Helvetica; font-size: 12px; font-style: normal; font-variant-ligatures: normal; font-variant-caps: normal; font-weight: 700; letter-spacing: normal; orphans: 2; text-align: center; text-indent: 0px; text-transform: none; widows: 2; word-spacing: 0px; -webkit-text-stroke-width: 0px; background-color: rgb(248, 249, 250); text-decoration-thickness: initial; text-decoration-style: initial; text-decoration-color: initial; float: none; display: inline !important;&quot;&gt;&lt;font color=&quot;#4c0099&quot;&gt;String &lt;/font&gt;&lt;font color=&quot;#000000&quot;&gt;rua&lt;/font&gt;&lt;/span&gt;" style="text;whiteSpace=wrap;html=1;fontColor=#08000F;" parent="agDxDxOGez-dhJYS4ttz-34" vertex="1">
          <mxGeometry x="6" y="88" width="104" height="24" as="geometry" />
        </mxCell>
        <mxCell id="agDxDxOGez-dhJYS4ttz-29" value="&lt;span style=&quot;color: rgb(0, 0, 0); font-family: Helvetica; font-size: 12px; font-style: normal; font-variant-ligatures: normal; font-variant-caps: normal; font-weight: 700; letter-spacing: normal; orphans: 2; text-align: center; text-indent: 0px; text-transform: none; widows: 2; word-spacing: 0px; -webkit-text-stroke-width: 0px; background-color: rgb(248, 249, 250); text-decoration-thickness: initial; text-decoration-style: initial; text-decoration-color: initial; float: none; display: inline !important;&quot;&gt;+&lt;/span&gt;&lt;span style=&quot;font-family: Helvetica; font-size: 12px; font-style: normal; font-variant-ligatures: normal; font-variant-caps: normal; font-weight: 700; letter-spacing: normal; orphans: 2; text-align: center; text-indent: 0px; text-transform: none; widows: 2; word-spacing: 0px; -webkit-text-stroke-width: 0px; background-color: rgb(248, 249, 250); text-decoration-thickness: initial; text-decoration-style: initial; text-decoration-color: initial; float: none; display: inline !important;&quot;&gt;&lt;font color=&quot;#4c0099&quot;&gt;String &lt;/font&gt;&lt;font color=&quot;#000000&quot;&gt;bairro&lt;/font&gt;&lt;/span&gt;" style="text;whiteSpace=wrap;html=1;fontColor=#08000F;" parent="agDxDxOGez-dhJYS4ttz-34" vertex="1">
          <mxGeometry x="6" y="107" width="144" height="24" as="geometry" />
        </mxCell>
        <mxCell id="agDxDxOGez-dhJYS4ttz-32" value="&lt;span style=&quot;color: rgb(0, 0, 0); font-family: Helvetica; font-size: 12px; font-style: normal; font-variant-ligatures: normal; font-variant-caps: normal; font-weight: 700; letter-spacing: normal; orphans: 2; text-align: center; text-indent: 0px; text-transform: none; widows: 2; word-spacing: 0px; -webkit-text-stroke-width: 0px; background-color: rgb(248, 249, 250); text-decoration-thickness: initial; text-decoration-style: initial; text-decoration-color: initial; float: none; display: inline !important;&quot;&gt;+&lt;/span&gt;&lt;span style=&quot;font-family: Helvetica; font-size: 12px; font-style: normal; font-variant-ligatures: normal; font-variant-caps: normal; font-weight: 700; letter-spacing: normal; orphans: 2; text-align: center; text-indent: 0px; text-transform: none; widows: 2; word-spacing: 0px; -webkit-text-stroke-width: 0px; background-color: rgb(248, 249, 250); text-decoration-thickness: initial; text-decoration-style: initial; text-decoration-color: initial; float: none; display: inline !important;&quot;&gt;&lt;font color=&quot;#4c0099&quot;&gt;String &lt;/font&gt;&lt;font color=&quot;#000000&quot;&gt;estado&lt;/font&gt;&lt;/span&gt;" style="text;whiteSpace=wrap;html=1;fontColor=#08000F;" parent="agDxDxOGez-dhJYS4ttz-34" vertex="1">
          <mxGeometry x="6" y="143" width="144" height="24" as="geometry" />
        </mxCell>
        <mxCell id="agDxDxOGez-dhJYS4ttz-93" style="edgeStyle=none;rounded=0;orthogonalLoop=1;jettySize=auto;html=1;exitX=0.5;exitY=0;exitDx=0;exitDy=0;entryX=0.5;entryY=1;entryDx=0;entryDy=0;fontColor=#08000F;" parent="1" source="agDxDxOGez-dhJYS4ttz-36" target="agDxDxOGez-dhJYS4ttz-15" edge="1">
          <mxGeometry relative="1" as="geometry" />
        </mxCell>
        <mxCell id="agDxDxOGez-dhJYS4ttz-36" value="Carro" style="swimlane;fontColor=#08000F;" parent="1" vertex="1">
          <mxGeometry x="167" y="389" width="200" height="270" as="geometry" />
        </mxCell>
        <mxCell id="agDxDxOGez-dhJYS4ttz-38" value="&lt;span style=&quot;color: rgb(0, 0, 0); font-family: Helvetica; font-size: 12px; font-style: normal; font-variant-ligatures: normal; font-variant-caps: normal; font-weight: 700; letter-spacing: normal; orphans: 2; text-align: center; text-indent: 0px; text-transform: none; widows: 2; word-spacing: 0px; -webkit-text-stroke-width: 0px; background-color: rgb(248, 249, 250); text-decoration-thickness: initial; text-decoration-style: initial; text-decoration-color: initial; float: none; display: inline !important;&quot;&gt;+&lt;/span&gt;&lt;font color=&quot;#4c0099&quot; style=&quot;font-family: Helvetica; font-size: 12px; font-style: normal; font-variant-ligatures: normal; font-variant-caps: normal; font-weight: 700; letter-spacing: normal; orphans: 2; text-align: center; text-indent: 0px; text-transform: none; widows: 2; word-spacing: 0px; -webkit-text-stroke-width: 0px; background-color: rgb(248, 249, 250); text-decoration-thickness: initial; text-decoration-style: initial; text-decoration-color: initial;&quot;&gt;UUID&lt;/font&gt;&lt;span style=&quot;color: rgb(0, 0, 0); font-family: Helvetica; font-size: 12px; font-style: normal; font-variant-ligatures: normal; font-variant-caps: normal; font-weight: 700; letter-spacing: normal; orphans: 2; text-align: center; text-indent: 0px; text-transform: none; widows: 2; word-spacing: 0px; -webkit-text-stroke-width: 0px; background-color: rgb(248, 249, 250); text-decoration-thickness: initial; text-decoration-style: initial; text-decoration-color: initial; float: none; display: inline !important;&quot;&gt;&lt;span&gt;&amp;nbsp;idCarro&lt;/span&gt;&lt;/span&gt;" style="text;whiteSpace=wrap;html=1;fontColor=#08000F;" parent="agDxDxOGez-dhJYS4ttz-36" vertex="1">
          <mxGeometry x="6" y="30" width="104" height="24" as="geometry" />
        </mxCell>
        <mxCell id="agDxDxOGez-dhJYS4ttz-39" value="&lt;span style=&quot;color: rgb(0, 0, 0); font-family: Helvetica; font-size: 12px; font-style: normal; font-variant-ligatures: normal; font-variant-caps: normal; font-weight: 700; letter-spacing: normal; orphans: 2; text-align: center; text-indent: 0px; text-transform: none; widows: 2; word-spacing: 0px; -webkit-text-stroke-width: 0px; background-color: rgb(248, 249, 250); text-decoration-thickness: initial; text-decoration-style: initial; text-decoration-color: initial; float: none; display: inline !important;&quot;&gt;+&lt;/span&gt;&lt;font color=&quot;#4c0099&quot; style=&quot;font-family: Helvetica; font-size: 12px; font-style: normal; font-variant-ligatures: normal; font-variant-caps: normal; font-weight: 700; letter-spacing: normal; orphans: 2; text-align: center; text-indent: 0px; text-transform: none; widows: 2; word-spacing: 0px; -webkit-text-stroke-width: 0px; background-color: rgb(248, 249, 250); text-decoration-thickness: initial; text-decoration-style: initial; text-decoration-color: initial;&quot;&gt;UUID&lt;/font&gt;&lt;span style=&quot;color: rgb(0, 0, 0); font-family: Helvetica; font-size: 12px; font-style: normal; font-variant-ligatures: normal; font-variant-caps: normal; font-weight: 700; letter-spacing: normal; orphans: 2; text-align: center; text-indent: 0px; text-transform: none; widows: 2; word-spacing: 0px; -webkit-text-stroke-width: 0px; background-color: rgb(248, 249, 250); text-decoration-thickness: initial; text-decoration-style: initial; text-decoration-color: initial; float: none; display: inline !important;&quot;&gt;&lt;span&gt;&amp;nbsp;idCliente&lt;/span&gt;&lt;/span&gt;" style="text;whiteSpace=wrap;html=1;fontColor=#08000F;" parent="agDxDxOGez-dhJYS4ttz-36" vertex="1">
          <mxGeometry x="6" y="54" width="104" height="24" as="geometry" />
        </mxCell>
        <mxCell id="agDxDxOGez-dhJYS4ttz-41" value="&lt;span style=&quot;color: rgb(0, 0, 0); font-family: Helvetica; font-size: 12px; font-style: normal; font-variant-ligatures: normal; font-variant-caps: normal; font-weight: 700; letter-spacing: normal; orphans: 2; text-align: center; text-indent: 0px; text-transform: none; widows: 2; word-spacing: 0px; -webkit-text-stroke-width: 0px; background-color: rgb(248, 249, 250); text-decoration-thickness: initial; text-decoration-style: initial; text-decoration-color: initial; float: none; display: inline !important;&quot;&gt;+&lt;/span&gt;&lt;span style=&quot;font-family: Helvetica; font-size: 12px; font-style: normal; font-variant-ligatures: normal; font-variant-caps: normal; font-weight: 700; letter-spacing: normal; orphans: 2; text-align: center; text-indent: 0px; text-transform: none; widows: 2; word-spacing: 0px; -webkit-text-stroke-width: 0px; background-color: rgb(248, 249, 250); text-decoration-thickness: initial; text-decoration-style: initial; text-decoration-color: initial; float: none; display: inline !important;&quot;&gt;&lt;font color=&quot;#4c0099&quot;&gt;String &lt;/font&gt;&lt;font color=&quot;#000000&quot;&gt;placa&lt;/font&gt;&lt;/span&gt;" style="text;whiteSpace=wrap;html=1;fontColor=#08000F;" parent="agDxDxOGez-dhJYS4ttz-36" vertex="1">
          <mxGeometry x="6" y="78" width="104" height="24" as="geometry" />
        </mxCell>
        <mxCell id="agDxDxOGez-dhJYS4ttz-45" value="&lt;span style=&quot;color: rgb(0, 0, 0); font-family: Helvetica; font-size: 12px; font-style: normal; font-variant-ligatures: normal; font-variant-caps: normal; font-weight: 700; letter-spacing: normal; orphans: 2; text-align: center; text-indent: 0px; text-transform: none; widows: 2; word-spacing: 0px; -webkit-text-stroke-width: 0px; background-color: rgb(248, 249, 250); text-decoration-thickness: initial; text-decoration-style: initial; text-decoration-color: initial; float: none; display: inline !important;&quot;&gt;+&lt;/span&gt;&lt;span style=&quot;font-family: Helvetica; font-size: 12px; font-style: normal; font-variant-ligatures: normal; font-variant-caps: normal; font-weight: 700; letter-spacing: normal; orphans: 2; text-align: center; text-indent: 0px; text-transform: none; widows: 2; word-spacing: 0px; -webkit-text-stroke-width: 0px; background-color: rgb(248, 249, 250); text-decoration-thickness: initial; text-decoration-style: initial; text-decoration-color: initial; float: none; display: inline !important;&quot;&gt;&lt;font color=&quot;#4c0099&quot;&gt;ENUN &lt;/font&gt;&lt;font color=&quot;#000000&quot;&gt;modelo&lt;/font&gt;&lt;/span&gt;" style="text;whiteSpace=wrap;html=1;fontColor=#08000F;" parent="agDxDxOGez-dhJYS4ttz-36" vertex="1">
          <mxGeometry x="6" y="102" width="144" height="24" as="geometry" />
        </mxCell>
        <mxCell id="agDxDxOGez-dhJYS4ttz-49" value="&lt;span style=&quot;color: rgb(0, 0, 0); font-family: Helvetica; font-size: 12px; font-style: normal; font-variant-ligatures: normal; font-variant-caps: normal; font-weight: 700; letter-spacing: normal; orphans: 2; text-align: center; text-indent: 0px; text-transform: none; widows: 2; word-spacing: 0px; -webkit-text-stroke-width: 0px; background-color: rgb(248, 249, 250); text-decoration-thickness: initial; text-decoration-style: initial; text-decoration-color: initial; float: none; display: inline !important;&quot;&gt;+&lt;/span&gt;&lt;span style=&quot;font-family: Helvetica; font-size: 12px; font-style: normal; font-variant-ligatures: normal; font-variant-caps: normal; font-weight: 700; letter-spacing: normal; orphans: 2; text-align: center; text-indent: 0px; text-transform: none; widows: 2; word-spacing: 0px; -webkit-text-stroke-width: 0px; background-color: rgb(248, 249, 250); text-decoration-thickness: initial; text-decoration-style: initial; text-decoration-color: initial; float: none; display: inline !important;&quot;&gt;&lt;font color=&quot;#4c0099&quot;&gt;ENUN &lt;/font&gt;&lt;font color=&quot;#000000&quot;&gt;marca&lt;/font&gt;&lt;/span&gt;" style="text;whiteSpace=wrap;html=1;fontColor=#08000F;" parent="agDxDxOGez-dhJYS4ttz-36" vertex="1">
          <mxGeometry x="6" y="126" width="144" height="24" as="geometry" />
        </mxCell>
        <mxCell id="agDxDxOGez-dhJYS4ttz-50" value="&lt;span style=&quot;color: rgb(0, 0, 0); font-family: Helvetica; font-size: 12px; font-style: normal; font-variant-ligatures: normal; font-variant-caps: normal; font-weight: 700; letter-spacing: normal; orphans: 2; text-align: center; text-indent: 0px; text-transform: none; widows: 2; word-spacing: 0px; -webkit-text-stroke-width: 0px; background-color: rgb(248, 249, 250); text-decoration-thickness: initial; text-decoration-style: initial; text-decoration-color: initial; float: none; display: inline !important;&quot;&gt;+&lt;/span&gt;&lt;span style=&quot;font-family: Helvetica; font-size: 12px; font-style: normal; font-variant-ligatures: normal; font-variant-caps: normal; font-weight: 700; letter-spacing: normal; orphans: 2; text-align: center; text-indent: 0px; text-transform: none; widows: 2; word-spacing: 0px; -webkit-text-stroke-width: 0px; background-color: rgb(248, 249, 250); text-decoration-thickness: initial; text-decoration-style: initial; text-decoration-color: initial; float: none; display: inline !important;&quot;&gt;&lt;font color=&quot;#4c0099&quot;&gt;ENUN &lt;/font&gt;&lt;font color=&quot;#000000&quot;&gt;motor&lt;/font&gt;&lt;/span&gt;" style="text;whiteSpace=wrap;html=1;fontColor=#08000F;" parent="agDxDxOGez-dhJYS4ttz-36" vertex="1">
          <mxGeometry x="6" y="150" width="144" height="24" as="geometry" />
        </mxCell>
        <mxCell id="agDxDxOGez-dhJYS4ttz-51" value="&lt;span style=&quot;color: rgb(0, 0, 0); font-family: Helvetica; font-size: 12px; font-style: normal; font-variant-ligatures: normal; font-variant-caps: normal; font-weight: 700; letter-spacing: normal; orphans: 2; text-align: center; text-indent: 0px; text-transform: none; widows: 2; word-spacing: 0px; -webkit-text-stroke-width: 0px; background-color: rgb(248, 249, 250); text-decoration-thickness: initial; text-decoration-style: initial; text-decoration-color: initial; float: none; display: inline !important;&quot;&gt;+&lt;/span&gt;&lt;span style=&quot;font-family: Helvetica; font-size: 12px; font-style: normal; font-variant-ligatures: normal; font-variant-caps: normal; font-weight: 700; letter-spacing: normal; orphans: 2; text-align: center; text-indent: 0px; text-transform: none; widows: 2; word-spacing: 0px; -webkit-text-stroke-width: 0px; background-color: rgb(248, 249, 250); text-decoration-thickness: initial; text-decoration-style: initial; text-decoration-color: initial; float: none; display: inline !important;&quot;&gt;&lt;font color=&quot;#4c0099&quot;&gt;String&amp;nbsp;&lt;/font&gt;&lt;font color=&quot;#000000&quot;&gt;cor&lt;/font&gt;&lt;/span&gt;" style="text;whiteSpace=wrap;html=1;fontColor=#08000F;" parent="agDxDxOGez-dhJYS4ttz-36" vertex="1">
          <mxGeometry x="6" y="174" width="144" height="24" as="geometry" />
        </mxCell>
        <mxCell id="agDxDxOGez-dhJYS4ttz-52" value="&lt;span style=&quot;color: rgb(0, 0, 0); font-family: Helvetica; font-size: 12px; font-style: normal; font-variant-ligatures: normal; font-variant-caps: normal; font-weight: 700; letter-spacing: normal; orphans: 2; text-align: center; text-indent: 0px; text-transform: none; widows: 2; word-spacing: 0px; -webkit-text-stroke-width: 0px; background-color: rgb(248, 249, 250); text-decoration-thickness: initial; text-decoration-style: initial; text-decoration-color: initial; float: none; display: inline !important;&quot;&gt;+&lt;/span&gt;&lt;span style=&quot;font-family: Helvetica; font-size: 12px; font-style: normal; font-variant-ligatures: normal; font-variant-caps: normal; font-weight: 700; letter-spacing: normal; orphans: 2; text-align: center; text-indent: 0px; text-transform: none; widows: 2; word-spacing: 0px; -webkit-text-stroke-width: 0px; background-color: rgb(248, 249, 250); text-decoration-thickness: initial; text-decoration-style: initial; text-decoration-color: initial; float: none; display: inline !important;&quot;&gt;&lt;font color=&quot;#4c0099&quot;&gt;String &lt;/font&gt;&lt;font color=&quot;#000000&quot;&gt;observacao&lt;/font&gt;&lt;/span&gt;" style="text;whiteSpace=wrap;html=1;fontColor=#08000F;" parent="agDxDxOGez-dhJYS4ttz-36" vertex="1">
          <mxGeometry x="6" y="240" width="144" height="24" as="geometry" />
        </mxCell>
        <mxCell id="agDxDxOGez-dhJYS4ttz-53" value="&lt;span style=&quot;color: rgb(0, 0, 0); font-family: Helvetica; font-size: 12px; font-style: normal; font-variant-ligatures: normal; font-variant-caps: normal; font-weight: 700; letter-spacing: normal; orphans: 2; text-align: center; text-indent: 0px; text-transform: none; widows: 2; word-spacing: 0px; -webkit-text-stroke-width: 0px; background-color: rgb(248, 249, 250); text-decoration-thickness: initial; text-decoration-style: initial; text-decoration-color: initial; float: none; display: inline !important;&quot;&gt;+&lt;/span&gt;&lt;span style=&quot;font-family: Helvetica; font-size: 12px; font-style: normal; font-variant-ligatures: normal; font-variant-caps: normal; font-weight: 700; letter-spacing: normal; orphans: 2; text-align: center; text-indent: 0px; text-transform: none; widows: 2; word-spacing: 0px; -webkit-text-stroke-width: 0px; background-color: rgb(248, 249, 250); text-decoration-thickness: initial; text-decoration-style: initial; text-decoration-color: initial; float: none; display: inline !important;&quot;&gt;&lt;font color=&quot;#4c0099&quot;&gt;Int&amp;nbsp;&lt;/font&gt;&lt;font color=&quot;#000000&quot;&gt;ano&lt;/font&gt;&lt;/span&gt;" style="text;whiteSpace=wrap;html=1;fontColor=#08000F;" parent="agDxDxOGez-dhJYS4ttz-36" vertex="1">
          <mxGeometry x="6" y="198" width="144" height="24" as="geometry" />
        </mxCell>
        <mxCell id="agDxDxOGez-dhJYS4ttz-54" value="&lt;span style=&quot;color: rgb(0, 0, 0); font-family: Helvetica; font-size: 12px; font-style: normal; font-variant-ligatures: normal; font-variant-caps: normal; font-weight: 700; letter-spacing: normal; orphans: 2; text-align: center; text-indent: 0px; text-transform: none; widows: 2; word-spacing: 0px; -webkit-text-stroke-width: 0px; background-color: rgb(248, 249, 250); text-decoration-thickness: initial; text-decoration-style: initial; text-decoration-color: initial; float: none; display: inline !important;&quot;&gt;+&lt;/span&gt;&lt;span style=&quot;font-family: Helvetica; font-size: 12px; font-style: normal; font-variant-ligatures: normal; font-variant-caps: normal; font-weight: 700; letter-spacing: normal; orphans: 2; text-align: center; text-indent: 0px; text-transform: none; widows: 2; word-spacing: 0px; -webkit-text-stroke-width: 0px; background-color: rgb(248, 249, 250); text-decoration-thickness: initial; text-decoration-style: initial; text-decoration-color: initial; float: none; display: inline !important;&quot;&gt;&lt;font color=&quot;#4c0099&quot;&gt;String &lt;/font&gt;&lt;font color=&quot;#000000&quot;&gt;frota&lt;/font&gt;&lt;/span&gt;" style="text;whiteSpace=wrap;html=1;fontColor=#08000F;" parent="agDxDxOGez-dhJYS4ttz-36" vertex="1">
          <mxGeometry x="6" y="216" width="144" height="24" as="geometry" />
        </mxCell>
        <mxCell id="agDxDxOGez-dhJYS4ttz-94" style="edgeStyle=none;rounded=0;orthogonalLoop=1;jettySize=auto;html=1;exitX=0;exitY=0;exitDx=0;exitDy=0;entryX=1;entryY=0.75;entryDx=0;entryDy=0;fontColor=#08000F;" parent="1" source="agDxDxOGez-dhJYS4ttz-56" target="agDxDxOGez-dhJYS4ttz-15" edge="1">
          <mxGeometry relative="1" as="geometry" />
        </mxCell>
        <mxCell id="agDxDxOGez-dhJYS4ttz-102" style="edgeStyle=none;rounded=0;orthogonalLoop=1;jettySize=auto;html=1;exitX=1;exitY=0;exitDx=0;exitDy=0;entryX=0;entryY=0.75;entryDx=0;entryDy=0;fontColor=#08000F;" parent="1" source="agDxDxOGez-dhJYS4ttz-56" target="agDxDxOGez-dhJYS4ttz-1" edge="1">
          <mxGeometry relative="1" as="geometry" />
        </mxCell>
        <mxCell id="agDxDxOGez-dhJYS4ttz-103" style="edgeStyle=none;rounded=0;orthogonalLoop=1;jettySize=auto;html=1;exitX=0;exitY=0.25;exitDx=0;exitDy=0;entryX=1;entryY=0.25;entryDx=0;entryDy=0;fontColor=#08000F;" parent="1" source="agDxDxOGez-dhJYS4ttz-56" target="agDxDxOGez-dhJYS4ttz-36" edge="1">
          <mxGeometry relative="1" as="geometry" />
        </mxCell>
        <mxCell id="agDxDxOGez-dhJYS4ttz-104" style="edgeStyle=none;rounded=0;orthogonalLoop=1;jettySize=auto;html=1;exitX=1;exitY=0.75;exitDx=0;exitDy=0;entryX=0;entryY=0.5;entryDx=0;entryDy=0;fontColor=#08000F;" parent="1" source="agDxDxOGez-dhJYS4ttz-56" target="agDxDxOGez-dhJYS4ttz-85" edge="1">
          <mxGeometry relative="1" as="geometry" />
        </mxCell>
        <mxCell id="agDxDxOGez-dhJYS4ttz-109" style="edgeStyle=none;rounded=0;orthogonalLoop=1;jettySize=auto;html=1;exitX=1;exitY=0.25;exitDx=0;exitDy=0;entryX=0;entryY=0.25;entryDx=0;entryDy=0;fontColor=#08000F;" parent="1" source="agDxDxOGez-dhJYS4ttz-56" target="agDxDxOGez-dhJYS4ttz-62" edge="1">
          <mxGeometry relative="1" as="geometry" />
        </mxCell>
        <mxCell id="NHJTBdeGV2len6277dxj-2" style="edgeStyle=orthogonalEdgeStyle;rounded=0;orthogonalLoop=1;jettySize=auto;html=1;exitX=0.5;exitY=1;exitDx=0;exitDy=0;entryX=1;entryY=0.5;entryDx=0;entryDy=0;" edge="1" parent="1" source="agDxDxOGez-dhJYS4ttz-56" target="cl13_IeFR8ZdHBrL8a40-1">
          <mxGeometry relative="1" as="geometry" />
        </mxCell>
        <mxCell id="agDxDxOGez-dhJYS4ttz-56" value="EmissaoDePedido" style="swimlane;fontColor=#08000F;" parent="1" vertex="1">
          <mxGeometry x="487" y="364" width="220" height="376" as="geometry" />
        </mxCell>
        <mxCell id="agDxDxOGez-dhJYS4ttz-57" value="&lt;span style=&quot;color: rgb(0, 0, 0); font-family: Helvetica; font-size: 12px; font-style: normal; font-variant-ligatures: normal; font-variant-caps: normal; font-weight: 700; letter-spacing: normal; orphans: 2; text-align: center; text-indent: 0px; text-transform: none; widows: 2; word-spacing: 0px; -webkit-text-stroke-width: 0px; background-color: rgb(248, 249, 250); text-decoration-thickness: initial; text-decoration-style: initial; text-decoration-color: initial; float: none; display: inline !important;&quot;&gt;+&lt;/span&gt;&lt;font color=&quot;#4c0099&quot; style=&quot;font-family: Helvetica; font-size: 12px; font-style: normal; font-variant-ligatures: normal; font-variant-caps: normal; font-weight: 700; letter-spacing: normal; orphans: 2; text-align: center; text-indent: 0px; text-transform: none; widows: 2; word-spacing: 0px; -webkit-text-stroke-width: 0px; background-color: rgb(248, 249, 250); text-decoration-thickness: initial; text-decoration-style: initial; text-decoration-color: initial;&quot;&gt;UUID&lt;/font&gt;&lt;span style=&quot;color: rgb(0, 0, 0); font-family: Helvetica; font-size: 12px; font-style: normal; font-variant-ligatures: normal; font-variant-caps: normal; font-weight: 700; letter-spacing: normal; orphans: 2; text-align: center; text-indent: 0px; text-transform: none; widows: 2; word-spacing: 0px; -webkit-text-stroke-width: 0px; background-color: rgb(248, 249, 250); text-decoration-thickness: initial; text-decoration-style: initial; text-decoration-color: initial; float: none; display: inline !important;&quot;&gt;&lt;span&gt;&amp;nbsp;idEmissao&lt;/span&gt;&lt;/span&gt;" style="text;whiteSpace=wrap;html=1;fontColor=#08000F;" parent="agDxDxOGez-dhJYS4ttz-56" vertex="1">
          <mxGeometry x="6" y="25" width="104" height="24" as="geometry" />
        </mxCell>
        <mxCell id="cl13_IeFR8ZdHBrL8a40-9" value="&lt;span style=&quot;color: rgb(0, 0, 0); font-family: Helvetica; font-size: 12px; font-style: normal; font-variant-ligatures: normal; font-variant-caps: normal; font-weight: 700; letter-spacing: normal; orphans: 2; text-align: center; text-indent: 0px; text-transform: none; widows: 2; word-spacing: 0px; -webkit-text-stroke-width: 0px; background-color: rgb(248, 249, 250); text-decoration-thickness: initial; text-decoration-style: initial; text-decoration-color: initial; float: none; display: inline !important;&quot;&gt;+&lt;/span&gt;&lt;font color=&quot;#4c0099&quot; style=&quot;font-family: Helvetica; font-size: 12px; font-style: normal; font-variant-ligatures: normal; font-variant-caps: normal; font-weight: 700; letter-spacing: normal; orphans: 2; text-align: center; text-indent: 0px; text-transform: none; widows: 2; word-spacing: 0px; -webkit-text-stroke-width: 0px; background-color: rgb(248, 249, 250); text-decoration-thickness: initial; text-decoration-style: initial; text-decoration-color: initial;&quot;&gt;UUID&lt;/font&gt;&lt;span style=&quot;color: rgb(0, 0, 0); font-family: Helvetica; font-size: 12px; font-style: normal; font-variant-ligatures: normal; font-variant-caps: normal; font-weight: 700; letter-spacing: normal; orphans: 2; text-align: center; text-indent: 0px; text-transform: none; widows: 2; word-spacing: 0px; -webkit-text-stroke-width: 0px; background-color: rgb(248, 249, 250); text-decoration-thickness: initial; text-decoration-style: initial; text-decoration-color: initial; float: none; display: inline !important;&quot;&gt;&lt;span&gt;&amp;nbsp;&lt;/span&gt;idEmpresa&lt;/span&gt;" style="text;whiteSpace=wrap;html=1;fontColor=#08000F;" parent="agDxDxOGez-dhJYS4ttz-56" vertex="1">
          <mxGeometry x="6" y="50" width="100" height="24" as="geometry" />
        </mxCell>
        <mxCell id="agDxDxOGez-dhJYS4ttz-62" value="Servico" style="swimlane;fontColor=#08000F;" parent="1" vertex="1">
          <mxGeometry x="747" y="419" width="200" height="150" as="geometry" />
        </mxCell>
        <mxCell id="agDxDxOGez-dhJYS4ttz-63" value="&lt;span style=&quot;color: rgb(0, 0, 0); font-family: Helvetica; font-size: 12px; font-style: normal; font-variant-ligatures: normal; font-variant-caps: normal; font-weight: 700; letter-spacing: normal; orphans: 2; text-align: center; text-indent: 0px; text-transform: none; widows: 2; word-spacing: 0px; -webkit-text-stroke-width: 0px; background-color: rgb(248, 249, 250); text-decoration-thickness: initial; text-decoration-style: initial; text-decoration-color: initial; float: none; display: inline !important;&quot;&gt;+&lt;/span&gt;&lt;font color=&quot;#4c0099&quot; style=&quot;font-family: Helvetica; font-size: 12px; font-style: normal; font-variant-ligatures: normal; font-variant-caps: normal; font-weight: 700; letter-spacing: normal; orphans: 2; text-align: center; text-indent: 0px; text-transform: none; widows: 2; word-spacing: 0px; -webkit-text-stroke-width: 0px; background-color: rgb(248, 249, 250); text-decoration-thickness: initial; text-decoration-style: initial; text-decoration-color: initial;&quot;&gt;UUID&lt;/font&gt;&lt;span style=&quot;color: rgb(0, 0, 0); font-family: Helvetica; font-size: 12px; font-style: normal; font-variant-ligatures: normal; font-variant-caps: normal; font-weight: 700; letter-spacing: normal; orphans: 2; text-align: center; text-indent: 0px; text-transform: none; widows: 2; word-spacing: 0px; -webkit-text-stroke-width: 0px; background-color: rgb(248, 249, 250); text-decoration-thickness: initial; text-decoration-style: initial; text-decoration-color: initial; float: none; display: inline !important;&quot;&gt;&lt;span&gt;&amp;nbsp;idServico&lt;/span&gt;&lt;/span&gt;" style="text;whiteSpace=wrap;html=1;fontColor=#08000F;" parent="agDxDxOGez-dhJYS4ttz-62" vertex="1">
          <mxGeometry x="5.5" y="30" width="104" height="24" as="geometry" />
        </mxCell>
        <mxCell id="agDxDxOGez-dhJYS4ttz-64" value="+&lt;font color=&quot;#6600cc&quot;&gt;String &lt;/font&gt;descricao" style="text;html=1;align=center;verticalAlign=middle;resizable=0;points=[];autosize=1;strokeColor=none;fillColor=none;fontStyle=1" parent="agDxDxOGez-dhJYS4ttz-62" vertex="1">
          <mxGeometry x="-2.5" y="74" width="120" height="30" as="geometry" />
        </mxCell>
        <mxCell id="agDxDxOGez-dhJYS4ttz-65" value="+&lt;font color=&quot;#6600cc&quot;&gt;Doble &lt;/font&gt;preço" style="text;html=1;align=center;verticalAlign=middle;resizable=0;points=[];autosize=1;strokeColor=none;fillColor=none;fontStyle=1" parent="agDxDxOGez-dhJYS4ttz-62" vertex="1">
          <mxGeometry x="-4.5" y="93" width="100" height="30" as="geometry" />
        </mxCell>
        <mxCell id="agDxDxOGez-dhJYS4ttz-66" value="&lt;span style=&quot;color: rgb(0, 0, 0); font-family: Helvetica; font-size: 12px; font-style: normal; font-variant-ligatures: normal; font-variant-caps: normal; font-weight: 700; letter-spacing: normal; orphans: 2; text-align: center; text-indent: 0px; text-transform: none; widows: 2; word-spacing: 0px; -webkit-text-stroke-width: 0px; background-color: rgb(248, 249, 250); text-decoration-thickness: initial; text-decoration-style: initial; text-decoration-color: initial; float: none; display: inline !important;&quot;&gt;+&lt;/span&gt;&lt;font color=&quot;#4c0099&quot; style=&quot;font-family: Helvetica; font-size: 12px; font-style: normal; font-variant-ligatures: normal; font-variant-caps: normal; font-weight: 700; letter-spacing: normal; orphans: 2; text-align: center; text-indent: 0px; text-transform: none; widows: 2; word-spacing: 0px; -webkit-text-stroke-width: 0px; background-color: rgb(248, 249, 250); text-decoration-thickness: initial; text-decoration-style: initial; text-decoration-color: initial;&quot;&gt;UUID&lt;/font&gt;&lt;span style=&quot;color: rgb(0, 0, 0); font-family: Helvetica; font-size: 12px; font-style: normal; font-variant-ligatures: normal; font-variant-caps: normal; font-weight: 700; letter-spacing: normal; orphans: 2; text-align: center; text-indent: 0px; text-transform: none; widows: 2; word-spacing: 0px; -webkit-text-stroke-width: 0px; background-color: rgb(248, 249, 250); text-decoration-thickness: initial; text-decoration-style: initial; text-decoration-color: initial; float: none; display: inline !important;&quot;&gt;&lt;span&gt;&amp;nbsp;idEmissao&lt;/span&gt;&lt;/span&gt;" style="text;whiteSpace=wrap;html=1;fontColor=#08000F;" parent="agDxDxOGez-dhJYS4ttz-62" vertex="1">
          <mxGeometry x="5.5" y="52" width="104" height="24" as="geometry" />
        </mxCell>
        <mxCell id="agDxDxOGez-dhJYS4ttz-67" value="&lt;span style=&quot;color: rgb(0, 0, 0); font-family: Helvetica; font-size: 12px; font-style: normal; font-variant-ligatures: normal; font-variant-caps: normal; font-weight: 700; letter-spacing: normal; orphans: 2; text-align: center; text-indent: 0px; text-transform: none; widows: 2; word-spacing: 0px; -webkit-text-stroke-width: 0px; background-color: rgb(248, 249, 250); text-decoration-thickness: initial; text-decoration-style: initial; text-decoration-color: initial; float: none; display: inline !important;&quot;&gt;+&lt;/span&gt;&lt;font color=&quot;#4c0099&quot; style=&quot;font-family: Helvetica; font-size: 12px; font-style: normal; font-variant-ligatures: normal; font-variant-caps: normal; font-weight: 700; letter-spacing: normal; orphans: 2; text-align: center; text-indent: 0px; text-transform: none; widows: 2; word-spacing: 0px; -webkit-text-stroke-width: 0px; background-color: rgb(248, 249, 250); text-decoration-thickness: initial; text-decoration-style: initial; text-decoration-color: initial;&quot;&gt;UUID&lt;/font&gt;&lt;span style=&quot;color: rgb(0, 0, 0); font-family: Helvetica; font-size: 12px; font-style: normal; font-variant-ligatures: normal; font-variant-caps: normal; font-weight: 700; letter-spacing: normal; orphans: 2; text-align: center; text-indent: 0px; text-transform: none; widows: 2; word-spacing: 0px; -webkit-text-stroke-width: 0px; background-color: rgb(248, 249, 250); text-decoration-thickness: initial; text-decoration-style: initial; text-decoration-color: initial; float: none; display: inline !important;&quot;&gt;&lt;span&gt;&amp;nbsp;idMecanico&lt;/span&gt;&lt;/span&gt;" style="text;whiteSpace=wrap;html=1;fontColor=#08000F;" parent="agDxDxOGez-dhJYS4ttz-62" vertex="1">
          <mxGeometry x="4.5" y="115" width="104" height="24" as="geometry" />
        </mxCell>
        <mxCell id="NHJTBdeGV2len6277dxj-3" style="edgeStyle=orthogonalEdgeStyle;rounded=0;orthogonalLoop=1;jettySize=auto;html=1;exitX=0.5;exitY=1;exitDx=0;exitDy=0;entryX=1;entryY=0.75;entryDx=0;entryDy=0;" edge="1" parent="1" source="agDxDxOGez-dhJYS4ttz-85" target="cl13_IeFR8ZdHBrL8a40-1">
          <mxGeometry relative="1" as="geometry" />
        </mxCell>
        <mxCell id="agDxDxOGez-dhJYS4ttz-85" value="Vendedor" style="swimlane;fontColor=#08000F;" parent="1" vertex="1">
          <mxGeometry x="757" y="589" width="200" height="141" as="geometry" />
        </mxCell>
        <mxCell id="agDxDxOGez-dhJYS4ttz-87" value="&lt;span style=&quot;color: rgb(0, 0, 0); font-family: Helvetica; font-size: 12px; font-style: normal; font-variant-ligatures: normal; font-variant-caps: normal; font-weight: 700; letter-spacing: normal; orphans: 2; text-align: center; text-indent: 0px; text-transform: none; widows: 2; word-spacing: 0px; -webkit-text-stroke-width: 0px; background-color: rgb(248, 249, 250); text-decoration-thickness: initial; text-decoration-style: initial; text-decoration-color: initial; float: none; display: inline !important;&quot;&gt;+&lt;/span&gt;&lt;font color=&quot;#4c0099&quot; style=&quot;font-family: Helvetica; font-size: 12px; font-style: normal; font-variant-ligatures: normal; font-variant-caps: normal; font-weight: 700; letter-spacing: normal; orphans: 2; text-align: center; text-indent: 0px; text-transform: none; widows: 2; word-spacing: 0px; -webkit-text-stroke-width: 0px; background-color: rgb(248, 249, 250); text-decoration-thickness: initial; text-decoration-style: initial; text-decoration-color: initial;&quot;&gt;Int&lt;/font&gt;&lt;span style=&quot;color: rgb(0, 0, 0); font-family: Helvetica; font-size: 12px; font-style: normal; font-variant-ligatures: normal; font-variant-caps: normal; font-weight: 700; letter-spacing: normal; orphans: 2; text-align: center; text-indent: 0px; text-transform: none; widows: 2; word-spacing: 0px; -webkit-text-stroke-width: 0px; background-color: rgb(248, 249, 250); text-decoration-thickness: initial; text-decoration-style: initial; text-decoration-color: initial; float: none; display: inline !important;&quot;&gt;&lt;span&gt;&amp;nbsp;codigoInterno&lt;/span&gt;&lt;/span&gt;" style="text;whiteSpace=wrap;html=1;fontColor=#08000F;" parent="agDxDxOGez-dhJYS4ttz-85" vertex="1">
          <mxGeometry x="10" y="66" width="140" height="24" as="geometry" />
        </mxCell>
        <mxCell id="agDxDxOGez-dhJYS4ttz-88" value="&lt;span style=&quot;font-family: Helvetica; font-size: 12px; font-style: normal; font-variant-ligatures: normal; font-variant-caps: normal; font-weight: 700; letter-spacing: normal; orphans: 2; text-align: center; text-indent: 0px; text-transform: none; widows: 2; word-spacing: 0px; -webkit-text-stroke-width: 0px; background-color: rgb(248, 249, 250); text-decoration-thickness: initial; text-decoration-style: initial; text-decoration-color: initial; float: none; display: inline !important; color: rgb(0, 0, 0);&quot;&gt;+&lt;/span&gt;&lt;span style=&quot;font-family: Helvetica; font-size: 12px; font-style: normal; font-variant-ligatures: normal; font-variant-caps: normal; font-weight: 700; letter-spacing: normal; orphans: 2; text-align: center; text-indent: 0px; text-transform: none; widows: 2; word-spacing: 0px; -webkit-text-stroke-width: 0px; background-color: rgb(248, 249, 250); text-decoration-thickness: initial; text-decoration-style: initial; text-decoration-color: initial; float: none; display: inline !important;&quot;&gt;&lt;font color=&quot;#4c0099&quot;&gt;String &lt;/font&gt;&lt;font color=&quot;#000000&quot;&gt;nome&lt;/font&gt;&lt;/span&gt;" style="text;whiteSpace=wrap;html=1;fontColor=#08000F;" parent="agDxDxOGez-dhJYS4ttz-85" vertex="1">
          <mxGeometry x="10" y="89" width="170" height="24" as="geometry" />
        </mxCell>
        <mxCell id="agDxDxOGez-dhJYS4ttz-89" value="&lt;span style=&quot;font-family: Helvetica; font-size: 12px; font-style: normal; font-variant-ligatures: normal; font-variant-caps: normal; font-weight: 700; letter-spacing: normal; orphans: 2; text-align: center; text-indent: 0px; text-transform: none; widows: 2; word-spacing: 0px; -webkit-text-stroke-width: 0px; background-color: rgb(248, 249, 250); text-decoration-thickness: initial; text-decoration-style: initial; text-decoration-color: initial; float: none; display: inline !important; color: rgb(0, 0, 0);&quot;&gt;+&lt;/span&gt;&lt;span style=&quot;font-family: Helvetica; font-size: 12px; font-style: normal; font-variant-ligatures: normal; font-variant-caps: normal; font-weight: 700; letter-spacing: normal; orphans: 2; text-align: center; text-indent: 0px; text-transform: none; widows: 2; word-spacing: 0px; -webkit-text-stroke-width: 0px; background-color: rgb(248, 249, 250); text-decoration-thickness: initial; text-decoration-style: initial; text-decoration-color: initial; float: none; display: inline !important;&quot;&gt;&lt;font color=&quot;#4c0099&quot;&gt;String &lt;/font&gt;&lt;font color=&quot;#000000&quot;&gt;senha&lt;/font&gt;&lt;/span&gt;" style="text;whiteSpace=wrap;html=1;fontColor=#08000F;" parent="agDxDxOGez-dhJYS4ttz-85" vertex="1">
          <mxGeometry x="10" y="113" width="160" height="24" as="geometry" />
        </mxCell>
        <mxCell id="cl13_IeFR8ZdHBrL8a40-10" value="&lt;span style=&quot;color: rgb(0, 0, 0); font-family: Helvetica; font-size: 12px; font-style: normal; font-variant-ligatures: normal; font-variant-caps: normal; font-weight: 700; letter-spacing: normal; orphans: 2; text-align: center; text-indent: 0px; text-transform: none; widows: 2; word-spacing: 0px; -webkit-text-stroke-width: 0px; background-color: rgb(248, 249, 250); text-decoration-thickness: initial; text-decoration-style: initial; text-decoration-color: initial; float: none; display: inline !important;&quot;&gt;+&lt;/span&gt;&lt;font color=&quot;#4c0099&quot; style=&quot;font-family: Helvetica; font-size: 12px; font-style: normal; font-variant-ligatures: normal; font-variant-caps: normal; font-weight: 700; letter-spacing: normal; orphans: 2; text-align: center; text-indent: 0px; text-transform: none; widows: 2; word-spacing: 0px; -webkit-text-stroke-width: 0px; background-color: rgb(248, 249, 250); text-decoration-thickness: initial; text-decoration-style: initial; text-decoration-color: initial;&quot;&gt;UUID&lt;/font&gt;&lt;span style=&quot;color: rgb(0, 0, 0); font-family: Helvetica; font-size: 12px; font-style: normal; font-variant-ligatures: normal; font-variant-caps: normal; font-weight: 700; letter-spacing: normal; orphans: 2; text-align: center; text-indent: 0px; text-transform: none; widows: 2; word-spacing: 0px; -webkit-text-stroke-width: 0px; background-color: rgb(248, 249, 250); text-decoration-thickness: initial; text-decoration-style: initial; text-decoration-color: initial; float: none; display: inline !important;&quot;&gt;&lt;span&gt;&amp;nbsp;&lt;/span&gt;idEmpresa&lt;/span&gt;" style="text;whiteSpace=wrap;html=1;fontColor=#08000F;" parent="agDxDxOGez-dhJYS4ttz-85" vertex="1">
          <mxGeometry x="9" y="43" width="100" height="20" as="geometry" />
        </mxCell>
        <mxCell id="cl13_IeFR8ZdHBrL8a40-11" value="&lt;span style=&quot;color: rgb(0, 0, 0); font-family: Helvetica; font-size: 12px; font-style: normal; font-variant-ligatures: normal; font-variant-caps: normal; font-weight: 700; letter-spacing: normal; orphans: 2; text-align: center; text-indent: 0px; text-transform: none; widows: 2; word-spacing: 0px; -webkit-text-stroke-width: 0px; background-color: rgb(248, 249, 250); text-decoration-thickness: initial; text-decoration-style: initial; text-decoration-color: initial; float: none; display: inline !important;&quot;&gt;+&lt;/span&gt;&lt;font color=&quot;#4c0099&quot; style=&quot;font-family: Helvetica; font-size: 12px; font-style: normal; font-variant-ligatures: normal; font-variant-caps: normal; font-weight: 700; letter-spacing: normal; orphans: 2; text-align: center; text-indent: 0px; text-transform: none; widows: 2; word-spacing: 0px; -webkit-text-stroke-width: 0px; background-color: rgb(248, 249, 250); text-decoration-thickness: initial; text-decoration-style: initial; text-decoration-color: initial;&quot;&gt;UUID&lt;/font&gt;&lt;span style=&quot;color: rgb(0, 0, 0); font-family: Helvetica; font-size: 12px; font-style: normal; font-variant-ligatures: normal; font-variant-caps: normal; font-weight: 700; letter-spacing: normal; orphans: 2; text-align: center; text-indent: 0px; text-transform: none; widows: 2; word-spacing: 0px; -webkit-text-stroke-width: 0px; background-color: rgb(248, 249, 250); text-decoration-thickness: initial; text-decoration-style: initial; text-decoration-color: initial; float: none; display: inline !important;&quot;&gt;&lt;span&gt;&amp;nbsp;&lt;/span&gt;idVendedor&lt;/span&gt;" style="text;whiteSpace=wrap;html=1;fontColor=#08000F;" parent="agDxDxOGez-dhJYS4ttz-85" vertex="1">
          <mxGeometry x="9" y="21" width="100" height="20" as="geometry" />
        </mxCell>
        <mxCell id="agDxDxOGez-dhJYS4ttz-95" style="edgeStyle=none;rounded=0;orthogonalLoop=1;jettySize=auto;html=1;exitX=0;exitY=0.25;exitDx=0;exitDy=0;entryX=1;entryY=0.5;entryDx=0;entryDy=0;fontColor=#08000F;" parent="1" source="agDxDxOGez-dhJYS4ttz-25" target="agDxDxOGez-dhJYS4ttz-15" edge="1">
          <mxGeometry relative="1" as="geometry" />
        </mxCell>
        <mxCell id="HxDKDiEduf-xlCwYUI6L-1" value="&lt;span style=&quot;color: rgb(0, 0, 0); font-family: Helvetica; font-size: 12px; font-style: normal; font-variant-ligatures: normal; font-variant-caps: normal; font-weight: 700; letter-spacing: normal; orphans: 2; text-align: center; text-indent: 0px; text-transform: none; widows: 2; word-spacing: 0px; -webkit-text-stroke-width: 0px; background-color: rgb(248, 249, 250); text-decoration-thickness: initial; text-decoration-style: initial; text-decoration-color: initial; float: none; display: inline !important;&quot;&gt;+&lt;/span&gt;&lt;font color=&quot;#4c0099&quot; style=&quot;font-family: Helvetica; font-size: 12px; font-style: normal; font-variant-ligatures: normal; font-variant-caps: normal; font-weight: 700; letter-spacing: normal; orphans: 2; text-align: center; text-indent: 0px; text-transform: none; widows: 2; word-spacing: 0px; -webkit-text-stroke-width: 0px; background-color: rgb(248, 249, 250); text-decoration-thickness: initial; text-decoration-style: initial; text-decoration-color: initial;&quot;&gt;UUID&lt;/font&gt;&lt;span style=&quot;color: rgb(0, 0, 0); font-family: Helvetica; font-size: 12px; font-style: normal; font-variant-ligatures: normal; font-variant-caps: normal; font-weight: 700; letter-spacing: normal; orphans: 2; text-align: center; text-indent: 0px; text-transform: none; widows: 2; word-spacing: 0px; -webkit-text-stroke-width: 0px; background-color: rgb(248, 249, 250); text-decoration-thickness: initial; text-decoration-style: initial; text-decoration-color: initial; float: none; display: inline !important;&quot;&gt;&lt;span&gt;&amp;nbsp;&lt;/span&gt;idEmpresa&lt;/span&gt;" style="text;whiteSpace=wrap;html=1;fontColor=#08000F;" parent="1" vertex="1">
          <mxGeometry x="177" y="115" width="100" height="24" as="geometry" />
        </mxCell>
        <mxCell id="cl13_IeFR8ZdHBrL8a40-1" value="Empresa" style="swimlane;" parent="1" vertex="1">
          <mxGeometry x="210" y="710" width="200" height="200" as="geometry" />
        </mxCell>
        <mxCell id="cl13_IeFR8ZdHBrL8a40-2" value="&lt;span style=&quot;color: rgb(0, 0, 0); font-family: Helvetica; font-size: 12px; font-style: normal; font-variant-ligatures: normal; font-variant-caps: normal; font-weight: 700; letter-spacing: normal; orphans: 2; text-align: center; text-indent: 0px; text-transform: none; widows: 2; word-spacing: 0px; -webkit-text-stroke-width: 0px; background-color: rgb(248, 249, 250); text-decoration-thickness: initial; text-decoration-style: initial; text-decoration-color: initial; float: none; display: inline !important;&quot;&gt;+&lt;/span&gt;&lt;font color=&quot;#4c0099&quot; style=&quot;font-family: Helvetica; font-size: 12px; font-style: normal; font-variant-ligatures: normal; font-variant-caps: normal; font-weight: 700; letter-spacing: normal; orphans: 2; text-align: center; text-indent: 0px; text-transform: none; widows: 2; word-spacing: 0px; -webkit-text-stroke-width: 0px; background-color: rgb(248, 249, 250); text-decoration-thickness: initial; text-decoration-style: initial; text-decoration-color: initial;&quot;&gt;UUID&lt;/font&gt;&lt;span style=&quot;color: rgb(0, 0, 0); font-family: Helvetica; font-size: 12px; font-style: normal; font-variant-ligatures: normal; font-variant-caps: normal; font-weight: 700; letter-spacing: normal; orphans: 2; text-align: center; text-indent: 0px; text-transform: none; widows: 2; word-spacing: 0px; -webkit-text-stroke-width: 0px; background-color: rgb(248, 249, 250); text-decoration-thickness: initial; text-decoration-style: initial; text-decoration-color: initial; float: none; display: inline !important;&quot;&gt;&lt;span&gt;&amp;nbsp;&lt;/span&gt;idEmpresa&lt;/span&gt;" style="text;whiteSpace=wrap;html=1;fontColor=#08000F;" parent="cl13_IeFR8ZdHBrL8a40-1" vertex="1">
          <mxGeometry x="7" y="30" width="100" height="20" as="geometry" />
        </mxCell>
        <mxCell id="cl13_IeFR8ZdHBrL8a40-3" value="&lt;span style=&quot;color: rgb(0, 0, 0); font-family: Helvetica; font-size: 12px; font-style: normal; font-variant-ligatures: normal; font-variant-caps: normal; font-weight: 700; letter-spacing: normal; orphans: 2; text-align: center; text-indent: 0px; text-transform: none; widows: 2; word-spacing: 0px; -webkit-text-stroke-width: 0px; background-color: rgb(248, 249, 250); text-decoration-thickness: initial; text-decoration-style: initial; text-decoration-color: initial; float: none; display: inline !important;&quot;&gt;+&lt;/span&gt;&lt;span style=&quot;font-family: Helvetica; font-size: 12px; font-style: normal; font-variant-ligatures: normal; font-variant-caps: normal; font-weight: 700; letter-spacing: normal; orphans: 2; text-align: center; text-indent: 0px; text-transform: none; widows: 2; word-spacing: 0px; -webkit-text-stroke-width: 0px; background-color: rgb(248, 249, 250); text-decoration-thickness: initial; text-decoration-style: initial; text-decoration-color: initial; float: none; display: inline !important;&quot;&gt;&lt;font color=&quot;#4c0099&quot;&gt;String&lt;/font&gt;&lt;/span&gt;&lt;span style=&quot;color: rgb(0, 0, 0); font-family: Helvetica; font-size: 12px; font-style: normal; font-variant-ligatures: normal; font-variant-caps: normal; font-weight: 700; letter-spacing: normal; orphans: 2; text-align: center; text-indent: 0px; text-transform: none; widows: 2; word-spacing: 0px; -webkit-text-stroke-width: 0px; background-color: rgb(248, 249, 250); text-decoration-thickness: initial; text-decoration-style: initial; text-decoration-color: initial; float: none; display: inline !important;&quot;&gt;&lt;span&gt;&amp;nbsp;&lt;/span&gt;CNPJ&lt;/span&gt;" style="text;whiteSpace=wrap;html=1;fontColor=#08000F;" parent="cl13_IeFR8ZdHBrL8a40-1" vertex="1">
          <mxGeometry x="7" y="52" width="100" height="20" as="geometry" />
        </mxCell>
        <mxCell id="cl13_IeFR8ZdHBrL8a40-4" value="&lt;span style=&quot;color: rgb(0, 0, 0); font-family: Helvetica; font-size: 12px; font-style: normal; font-variant-ligatures: normal; font-variant-caps: normal; font-weight: 700; letter-spacing: normal; orphans: 2; text-align: center; text-indent: 0px; text-transform: none; widows: 2; word-spacing: 0px; -webkit-text-stroke-width: 0px; background-color: rgb(248, 249, 250); text-decoration-thickness: initial; text-decoration-style: initial; text-decoration-color: initial; float: none; display: inline !important;&quot;&gt;+&lt;/span&gt;&lt;span style=&quot;font-family: Helvetica; font-size: 12px; font-style: normal; font-variant-ligatures: normal; font-variant-caps: normal; font-weight: 700; letter-spacing: normal; orphans: 2; text-align: center; text-indent: 0px; text-transform: none; widows: 2; word-spacing: 0px; -webkit-text-stroke-width: 0px; background-color: rgb(248, 249, 250); text-decoration-thickness: initial; text-decoration-style: initial; text-decoration-color: initial; float: none; display: inline !important;&quot;&gt;&lt;font color=&quot;#4c0099&quot;&gt;String&lt;/font&gt;&lt;/span&gt;&lt;span style=&quot;color: rgb(0, 0, 0); font-family: Helvetica; font-size: 12px; font-style: normal; font-variant-ligatures: normal; font-variant-caps: normal; font-weight: 700; letter-spacing: normal; orphans: 2; text-align: center; text-indent: 0px; text-transform: none; widows: 2; word-spacing: 0px; -webkit-text-stroke-width: 0px; background-color: rgb(248, 249, 250); text-decoration-thickness: initial; text-decoration-style: initial; text-decoration-color: initial; float: none; display: inline !important;&quot;&gt;&lt;span&gt;&amp;nbsp;nomeFantasia&lt;/span&gt;&lt;/span&gt;" style="text;whiteSpace=wrap;html=1;fontColor=#08000F;" parent="cl13_IeFR8ZdHBrL8a40-1" vertex="1">
          <mxGeometry x="7" y="74" width="100" height="20" as="geometry" />
        </mxCell>
        <mxCell id="cl13_IeFR8ZdHBrL8a40-5" value="&lt;span style=&quot;color: rgb(0, 0, 0); font-family: Helvetica; font-size: 12px; font-style: normal; font-variant-ligatures: normal; font-variant-caps: normal; font-weight: 700; letter-spacing: normal; orphans: 2; text-align: center; text-indent: 0px; text-transform: none; widows: 2; word-spacing: 0px; -webkit-text-stroke-width: 0px; background-color: rgb(248, 249, 250); text-decoration-thickness: initial; text-decoration-style: initial; text-decoration-color: initial; float: none; display: inline !important;&quot;&gt;+&lt;/span&gt;&lt;span style=&quot;font-family: Helvetica; font-size: 12px; font-style: normal; font-variant-ligatures: normal; font-variant-caps: normal; font-weight: 700; letter-spacing: normal; orphans: 2; text-align: center; text-indent: 0px; text-transform: none; widows: 2; word-spacing: 0px; -webkit-text-stroke-width: 0px; background-color: rgb(248, 249, 250); text-decoration-thickness: initial; text-decoration-style: initial; text-decoration-color: initial; float: none; display: inline !important;&quot;&gt;&lt;font color=&quot;#4c0099&quot;&gt;String&lt;/font&gt;&lt;/span&gt;&lt;span style=&quot;color: rgb(0, 0, 0); font-family: Helvetica; font-size: 12px; font-style: normal; font-variant-ligatures: normal; font-variant-caps: normal; font-weight: 700; letter-spacing: normal; orphans: 2; text-align: center; text-indent: 0px; text-transform: none; widows: 2; word-spacing: 0px; -webkit-text-stroke-width: 0px; background-color: rgb(248, 249, 250); text-decoration-thickness: initial; text-decoration-style: initial; text-decoration-color: initial; float: none; display: inline !important;&quot;&gt;&lt;span&gt;&amp;nbsp;senha&lt;/span&gt;&lt;/span&gt;" style="text;whiteSpace=wrap;html=1;fontColor=#08000F;" parent="cl13_IeFR8ZdHBrL8a40-1" vertex="1">
          <mxGeometry x="7" y="97" width="100" height="20" as="geometry" />
        </mxCell>
        <mxCell id="cl13_IeFR8ZdHBrL8a40-6" value="&lt;span style=&quot;color: rgb(0, 0, 0); font-family: Helvetica; font-size: 12px; font-style: normal; font-variant-ligatures: normal; font-variant-caps: normal; font-weight: 700; letter-spacing: normal; orphans: 2; text-align: center; text-indent: 0px; text-transform: none; widows: 2; word-spacing: 0px; -webkit-text-stroke-width: 0px; background-color: rgb(248, 249, 250); text-decoration-thickness: initial; text-decoration-style: initial; text-decoration-color: initial; float: none; display: inline !important;&quot;&gt;+&lt;/span&gt;&lt;span style=&quot;font-family: Helvetica; font-size: 12px; font-style: normal; font-variant-ligatures: normal; font-variant-caps: normal; font-weight: 700; letter-spacing: normal; orphans: 2; text-align: center; text-indent: 0px; text-transform: none; widows: 2; word-spacing: 0px; -webkit-text-stroke-width: 0px; background-color: rgb(248, 249, 250); text-decoration-thickness: initial; text-decoration-style: initial; text-decoration-color: initial; float: none; display: inline !important;&quot;&gt;&lt;font color=&quot;#4c0099&quot;&gt;String&lt;/font&gt;&lt;/span&gt;&lt;span style=&quot;color: rgb(0, 0, 0); font-family: Helvetica; font-size: 12px; font-style: normal; font-variant-ligatures: normal; font-variant-caps: normal; font-weight: 700; letter-spacing: normal; orphans: 2; text-align: center; text-indent: 0px; text-transform: none; widows: 2; word-spacing: 0px; -webkit-text-stroke-width: 0px; background-color: rgb(248, 249, 250); text-decoration-thickness: initial; text-decoration-style: initial; text-decoration-color: initial; float: none; display: inline !important;&quot;&gt;&lt;span&gt;&amp;nbsp;email&lt;/span&gt;&lt;/span&gt;" style="text;whiteSpace=wrap;html=1;fontColor=#08000F;" parent="cl13_IeFR8ZdHBrL8a40-1" vertex="1">
          <mxGeometry x="7" y="117" width="100" height="20" as="geometry" />
        </mxCell>
        <mxCell id="cl13_IeFR8ZdHBrL8a40-7" value="&lt;span style=&quot;color: rgb(0, 0, 0); font-family: Helvetica; font-size: 12px; font-style: normal; font-variant-ligatures: normal; font-variant-caps: normal; font-weight: 700; letter-spacing: normal; orphans: 2; text-align: center; text-indent: 0px; text-transform: none; widows: 2; word-spacing: 0px; -webkit-text-stroke-width: 0px; background-color: rgb(248, 249, 250); text-decoration-thickness: initial; text-decoration-style: initial; text-decoration-color: initial; float: none; display: inline !important;&quot;&gt;+&lt;/span&gt;&lt;span style=&quot;font-family: Helvetica; font-size: 12px; font-style: normal; font-variant-ligatures: normal; font-variant-caps: normal; font-weight: 700; letter-spacing: normal; orphans: 2; text-align: center; text-indent: 0px; text-transform: none; widows: 2; word-spacing: 0px; -webkit-text-stroke-width: 0px; background-color: rgb(248, 249, 250); text-decoration-thickness: initial; text-decoration-style: initial; text-decoration-color: initial; float: none; display: inline !important;&quot;&gt;&lt;font color=&quot;#4c0099&quot;&gt;UUID&lt;/font&gt;&lt;/span&gt;&lt;span style=&quot;color: rgb(0, 0, 0); font-family: Helvetica; font-size: 12px; font-style: normal; font-variant-ligatures: normal; font-variant-caps: normal; font-weight: 700; letter-spacing: normal; orphans: 2; text-align: center; text-indent: 0px; text-transform: none; widows: 2; word-spacing: 0px; -webkit-text-stroke-width: 0px; background-color: rgb(248, 249, 250); text-decoration-thickness: initial; text-decoration-style: initial; text-decoration-color: initial; float: none; display: inline !important;&quot;&gt;&lt;span&gt;&amp;nbsp;empresaPai&lt;/span&gt;&lt;/span&gt;" style="text;whiteSpace=wrap;html=1;fontColor=#08000F;" parent="cl13_IeFR8ZdHBrL8a40-1" vertex="1">
          <mxGeometry x="7" y="138" width="123" height="20" as="geometry" />
        </mxCell>
        <mxCell id="agDxDxOGez-dhJYS4ttz-58" value="&lt;span style=&quot;color: rgb(0, 0, 0); font-family: Helvetica; font-size: 12px; font-style: normal; font-variant-ligatures: normal; font-variant-caps: normal; font-weight: 700; letter-spacing: normal; orphans: 2; text-align: center; text-indent: 0px; text-transform: none; widows: 2; word-spacing: 0px; -webkit-text-stroke-width: 0px; background-color: rgb(248, 249, 250); text-decoration-thickness: initial; text-decoration-style: initial; text-decoration-color: initial; float: none; display: inline !important;&quot;&gt;+&lt;/span&gt;&lt;font color=&quot;#4c0099&quot; style=&quot;font-family: Helvetica; font-size: 12px; font-style: normal; font-variant-ligatures: normal; font-variant-caps: normal; font-weight: 700; letter-spacing: normal; orphans: 2; text-align: center; text-indent: 0px; text-transform: none; widows: 2; word-spacing: 0px; -webkit-text-stroke-width: 0px; background-color: rgb(248, 249, 250); text-decoration-thickness: initial; text-decoration-style: initial; text-decoration-color: initial;&quot;&gt;UUID&lt;/font&gt;&lt;span style=&quot;color: rgb(0, 0, 0); font-family: Helvetica; font-size: 12px; font-style: normal; font-variant-ligatures: normal; font-variant-caps: normal; font-weight: 700; letter-spacing: normal; orphans: 2; text-align: center; text-indent: 0px; text-transform: none; widows: 2; word-spacing: 0px; -webkit-text-stroke-width: 0px; background-color: rgb(248, 249, 250); text-decoration-thickness: initial; text-decoration-style: initial; text-decoration-color: initial; float: none; display: inline !important;&quot;&gt;&lt;span&gt;&amp;nbsp;idCliente&lt;/span&gt;&lt;/span&gt;" style="text;whiteSpace=wrap;html=1;fontColor=#08000F;" parent="1" vertex="1">
          <mxGeometry x="493" y="438" width="104" height="24" as="geometry" />
        </mxCell>
        <mxCell id="agDxDxOGez-dhJYS4ttz-59" value="&lt;span style=&quot;color: rgb(0, 0, 0); font-family: Helvetica; font-size: 12px; font-style: normal; font-variant-ligatures: normal; font-variant-caps: normal; font-weight: 700; letter-spacing: normal; orphans: 2; text-align: center; text-indent: 0px; text-transform: none; widows: 2; word-spacing: 0px; -webkit-text-stroke-width: 0px; background-color: rgb(248, 249, 250); text-decoration-thickness: initial; text-decoration-style: initial; text-decoration-color: initial; float: none; display: inline !important;&quot;&gt;+&lt;/span&gt;&lt;font color=&quot;#4c0099&quot; style=&quot;font-family: Helvetica; font-size: 12px; font-style: normal; font-variant-ligatures: normal; font-variant-caps: normal; font-weight: 700; letter-spacing: normal; orphans: 2; text-align: center; text-indent: 0px; text-transform: none; widows: 2; word-spacing: 0px; -webkit-text-stroke-width: 0px; background-color: rgb(248, 249, 250); text-decoration-thickness: initial; text-decoration-style: initial; text-decoration-color: initial;&quot;&gt;UUID&lt;/font&gt;&lt;span style=&quot;color: rgb(0, 0, 0); font-family: Helvetica; font-size: 12px; font-style: normal; font-variant-ligatures: normal; font-variant-caps: normal; font-weight: 700; letter-spacing: normal; orphans: 2; text-align: center; text-indent: 0px; text-transform: none; widows: 2; word-spacing: 0px; -webkit-text-stroke-width: 0px; background-color: rgb(248, 249, 250); text-decoration-thickness: initial; text-decoration-style: initial; text-decoration-color: initial; float: none; display: inline !important;&quot;&gt;&lt;span&gt;&amp;nbsp;idCarro&lt;/span&gt;&lt;/span&gt;" style="text;whiteSpace=wrap;html=1;fontColor=#08000F;" parent="1" vertex="1">
          <mxGeometry x="493" y="462" width="104" height="24" as="geometry" />
        </mxCell>
        <mxCell id="agDxDxOGez-dhJYS4ttz-60" value="&lt;span style=&quot;color: rgb(0, 0, 0); font-family: Helvetica; font-size: 12px; font-style: normal; font-variant-ligatures: normal; font-variant-caps: normal; font-weight: 700; letter-spacing: normal; orphans: 2; text-align: center; text-indent: 0px; text-transform: none; widows: 2; word-spacing: 0px; -webkit-text-stroke-width: 0px; background-color: rgb(248, 249, 250); text-decoration-thickness: initial; text-decoration-style: initial; text-decoration-color: initial; float: none; display: inline !important;&quot;&gt;+&lt;/span&gt;&lt;span style=&quot;font-family: Helvetica; font-size: 12px; font-style: normal; font-variant-ligatures: normal; font-variant-caps: normal; font-weight: 700; letter-spacing: normal; orphans: 2; text-align: center; text-indent: 0px; text-transform: none; widows: 2; word-spacing: 0px; -webkit-text-stroke-width: 0px; background-color: rgb(248, 249, 250); text-decoration-thickness: initial; text-decoration-style: initial; text-decoration-color: initial; float: none; display: inline !important;&quot;&gt;&lt;font color=&quot;#4c0099&quot;&gt;ENUN &lt;/font&gt;&lt;font color=&quot;#000000&quot;&gt;tipoDeOperacao&lt;/font&gt;&lt;/span&gt;" style="text;whiteSpace=wrap;html=1;fontColor=#08000F;" parent="1" vertex="1">
          <mxGeometry x="493" y="486" width="144" height="24" as="geometry" />
        </mxCell>
        <mxCell id="agDxDxOGez-dhJYS4ttz-77" value="&lt;span style=&quot;color: rgb(0, 0, 0); font-family: Helvetica; font-size: 12px; font-style: normal; font-variant-ligatures: normal; font-variant-caps: normal; font-weight: 700; letter-spacing: normal; orphans: 2; text-align: center; text-indent: 0px; text-transform: none; widows: 2; word-spacing: 0px; -webkit-text-stroke-width: 0px; background-color: rgb(248, 249, 250); text-decoration-thickness: initial; text-decoration-style: initial; text-decoration-color: initial; float: none; display: inline !important;&quot;&gt;+&lt;/span&gt;&lt;span style=&quot;font-family: Helvetica; font-size: 12px; font-style: normal; font-variant-ligatures: normal; font-variant-caps: normal; font-weight: 700; letter-spacing: normal; orphans: 2; text-align: center; text-indent: 0px; text-transform: none; widows: 2; word-spacing: 0px; -webkit-text-stroke-width: 0px; background-color: rgb(248, 249, 250); text-decoration-thickness: initial; text-decoration-style: initial; text-decoration-color: initial; float: none; display: inline !important;&quot;&gt;&lt;font color=&quot;#4c0099&quot;&gt;List&amp;lt;&lt;/font&gt;&lt;/span&gt;&lt;span style=&quot;font-family: Helvetica; font-size: 12px; font-style: normal; font-variant-ligatures: normal; font-variant-caps: normal; font-weight: 700; letter-spacing: normal; orphans: 2; text-align: center; text-indent: 0px; text-transform: none; widows: 2; word-spacing: 0px; -webkit-text-stroke-width: 0px; background-color: rgb(248, 249, 250); text-decoration-thickness: initial; text-decoration-style: initial; text-decoration-color: initial; float: none; display: inline !important;&quot;&gt;&lt;font color=&quot;#6600cc&quot;&gt;Produto&amp;gt;&amp;nbsp; &lt;/font&gt;listaDeProdutos&lt;/span&gt;" style="text;whiteSpace=wrap;html=1;fontColor=#08000F;" parent="1" vertex="1">
          <mxGeometry x="493" y="510" width="214" height="19" as="geometry" />
        </mxCell>
        <mxCell id="agDxDxOGez-dhJYS4ttz-108" value="&lt;span style=&quot;color: rgb(0, 0, 0); font-family: Helvetica; font-size: 12px; font-style: normal; font-variant-ligatures: normal; font-variant-caps: normal; font-weight: 700; letter-spacing: normal; orphans: 2; text-align: center; text-indent: 0px; text-transform: none; widows: 2; word-spacing: 0px; -webkit-text-stroke-width: 0px; background-color: rgb(248, 249, 250); text-decoration-thickness: initial; text-decoration-style: initial; text-decoration-color: initial; float: none; display: inline !important;&quot;&gt;+&lt;/span&gt;&lt;span style=&quot;font-family: Helvetica; font-size: 12px; font-style: normal; font-variant-ligatures: normal; font-variant-caps: normal; font-weight: 700; letter-spacing: normal; orphans: 2; text-align: center; text-indent: 0px; text-transform: none; widows: 2; word-spacing: 0px; -webkit-text-stroke-width: 0px; background-color: rgb(248, 249, 250); text-decoration-thickness: initial; text-decoration-style: initial; text-decoration-color: initial; float: none; display: inline !important;&quot;&gt;&lt;font color=&quot;#4c0099&quot;&gt;List&amp;lt;&lt;/font&gt;&lt;/span&gt;&lt;span style=&quot;font-family: Helvetica; font-size: 12px; font-style: normal; font-variant-ligatures: normal; font-variant-caps: normal; font-weight: 700; letter-spacing: normal; orphans: 2; text-align: center; text-indent: 0px; text-transform: none; widows: 2; word-spacing: 0px; -webkit-text-stroke-width: 0px; background-color: rgb(248, 249, 250); text-decoration-thickness: initial; text-decoration-style: initial; text-decoration-color: initial; float: none; display: inline !important;&quot;&gt;&lt;font color=&quot;#6600cc&quot;&gt;Produto&amp;gt; &lt;/font&gt;listaDeServicos&lt;/span&gt;" style="text;whiteSpace=wrap;html=1;fontColor=#08000F;" parent="1" vertex="1">
          <mxGeometry x="493" y="529" width="184" height="19" as="geometry" />
        </mxCell>
        <mxCell id="agDxDxOGez-dhJYS4ttz-110" value="&lt;span style=&quot;font-family: Helvetica; font-size: 12px; font-style: normal; font-variant-ligatures: normal; font-variant-caps: normal; font-weight: 700; letter-spacing: normal; orphans: 2; text-align: center; text-indent: 0px; text-transform: none; widows: 2; word-spacing: 0px; -webkit-text-stroke-width: 0px; background-color: rgb(248, 249, 250); text-decoration-thickness: initial; text-decoration-style: initial; text-decoration-color: initial; float: none; display: inline !important; color: rgb(0, 0, 0);&quot;&gt;+&lt;/span&gt;&lt;span style=&quot;font-family: Helvetica; font-size: 12px; font-style: normal; font-variant-ligatures: normal; font-variant-caps: normal; font-weight: 700; letter-spacing: normal; orphans: 2; text-align: center; text-indent: 0px; text-transform: none; widows: 2; word-spacing: 0px; -webkit-text-stroke-width: 0px; background-color: rgb(248, 249, 250); text-decoration-thickness: initial; text-decoration-style: initial; text-decoration-color: initial; float: none; display: inline !important;&quot;&gt;&lt;font color=&quot;#4c0099&quot;&gt;String &lt;/font&gt;&lt;font color=&quot;#000000&quot;&gt;carroAvista&lt;/font&gt;&lt;/span&gt;" style="text;whiteSpace=wrap;html=1;fontColor=#08000F;" parent="1" vertex="1">
          <mxGeometry x="493" y="658" width="160" height="24" as="geometry" />
        </mxCell>
        <mxCell id="agDxDxOGez-dhJYS4ttz-111" value="&lt;span style=&quot;font-family: Helvetica; font-size: 12px; font-style: normal; font-variant-ligatures: normal; font-variant-caps: normal; font-weight: 700; letter-spacing: normal; orphans: 2; text-align: center; text-indent: 0px; text-transform: none; widows: 2; word-spacing: 0px; -webkit-text-stroke-width: 0px; background-color: rgb(248, 249, 250); text-decoration-thickness: initial; text-decoration-style: initial; text-decoration-color: initial; float: none; display: inline !important; color: rgb(0, 0, 0);&quot;&gt;+&lt;/span&gt;&lt;span style=&quot;font-family: Helvetica; font-size: 12px; font-style: normal; font-variant-ligatures: normal; font-variant-caps: normal; font-weight: 700; letter-spacing: normal; orphans: 2; text-align: center; text-indent: 0px; text-transform: none; widows: 2; word-spacing: 0px; -webkit-text-stroke-width: 0px; background-color: rgb(248, 249, 250); text-decoration-thickness: initial; text-decoration-style: initial; text-decoration-color: initial; float: none; display: inline !important;&quot;&gt;&lt;font color=&quot;#4c0099&quot;&gt;String &lt;/font&gt;placaC&lt;font color=&quot;#000000&quot;&gt;arroAvista&lt;/font&gt;&lt;/span&gt;" style="text;whiteSpace=wrap;html=1;fontColor=#08000F;" parent="1" vertex="1">
          <mxGeometry x="493" y="682" width="160" height="24" as="geometry" />
        </mxCell>
        <mxCell id="agDxDxOGez-dhJYS4ttz-112" value="&lt;span style=&quot;font-family: Helvetica; font-size: 12px; font-style: normal; font-variant-ligatures: normal; font-variant-caps: normal; font-weight: 700; letter-spacing: normal; orphans: 2; text-align: center; text-indent: 0px; text-transform: none; widows: 2; word-spacing: 0px; -webkit-text-stroke-width: 0px; background-color: rgb(248, 249, 250); text-decoration-thickness: initial; text-decoration-style: initial; text-decoration-color: initial; float: none; display: inline !important; color: rgb(0, 0, 0);&quot;&gt;+&lt;/span&gt;&lt;span style=&quot;font-family: Helvetica; font-size: 12px; font-style: normal; font-variant-ligatures: normal; font-variant-caps: normal; font-weight: 700; letter-spacing: normal; orphans: 2; text-align: center; text-indent: 0px; text-transform: none; widows: 2; word-spacing: 0px; -webkit-text-stroke-width: 0px; background-color: rgb(248, 249, 250); text-decoration-thickness: initial; text-decoration-style: initial; text-decoration-color: initial; float: none; display: inline !important;&quot;&gt;&lt;font color=&quot;#4c0099&quot;&gt;String &lt;/font&gt;mecanicosResponsaveis&lt;/span&gt;" style="text;whiteSpace=wrap;html=1;fontColor=#08000F;" parent="1" vertex="1">
          <mxGeometry x="493" y="704" width="204" height="24" as="geometry" />
        </mxCell>
        <mxCell id="agDxDxOGez-dhJYS4ttz-80" value="&lt;span style=&quot;color: rgb(0, 0, 0); font-family: Helvetica; font-size: 12px; font-style: normal; font-variant-ligatures: normal; font-variant-caps: normal; font-weight: 700; letter-spacing: normal; orphans: 2; text-align: center; text-indent: 0px; text-transform: none; widows: 2; word-spacing: 0px; -webkit-text-stroke-width: 0px; background-color: rgb(248, 249, 250); text-decoration-thickness: initial; text-decoration-style: initial; text-decoration-color: initial; float: none; display: inline !important;&quot;&gt;+&lt;/span&gt;&lt;span style=&quot;font-family: Helvetica; font-size: 12px; font-style: normal; font-variant-ligatures: normal; font-variant-caps: normal; font-weight: 700; letter-spacing: normal; orphans: 2; text-align: center; text-indent: 0px; text-transform: none; widows: 2; word-spacing: 0px; -webkit-text-stroke-width: 0px; background-color: rgb(248, 249, 250); text-decoration-thickness: initial; text-decoration-style: initial; text-decoration-color: initial; float: none; display: inline !important;&quot;&gt;&lt;font color=&quot;#4c0099&quot;&gt;Int &lt;/font&gt;&lt;font color=&quot;#000000&quot;&gt;km&lt;/font&gt;&lt;/span&gt;" style="text;whiteSpace=wrap;html=1;fontColor=#08000F;" parent="1" vertex="1">
          <mxGeometry x="493" y="548" width="144" height="24" as="geometry" />
        </mxCell>
        <mxCell id="agDxDxOGez-dhJYS4ttz-81" value="&lt;span style=&quot;color: rgb(0, 0, 0); font-family: Helvetica; font-size: 12px; font-style: normal; font-variant-ligatures: normal; font-variant-caps: normal; font-weight: 700; letter-spacing: normal; orphans: 2; text-align: center; text-indent: 0px; text-transform: none; widows: 2; word-spacing: 0px; -webkit-text-stroke-width: 0px; background-color: rgb(248, 249, 250); text-decoration-thickness: initial; text-decoration-style: initial; text-decoration-color: initial; float: none; display: inline !important;&quot;&gt;+&lt;/span&gt;&lt;span style=&quot;font-family: Helvetica; font-size: 12px; font-style: normal; font-variant-ligatures: normal; font-variant-caps: normal; font-weight: 700; letter-spacing: normal; orphans: 2; text-align: center; text-indent: 0px; text-transform: none; widows: 2; word-spacing: 0px; -webkit-text-stroke-width: 0px; background-color: rgb(248, 249, 250); text-decoration-thickness: initial; text-decoration-style: initial; text-decoration-color: initial; float: none; display: inline !important;&quot;&gt;&lt;font color=&quot;#4c0099&quot;&gt;ENUN &lt;/font&gt;&lt;font color=&quot;#000000&quot;&gt;status&lt;/font&gt;&lt;/span&gt;" style="text;whiteSpace=wrap;html=1;fontColor=#08000F;" parent="1" vertex="1">
          <mxGeometry x="494" y="569" width="144" height="24" as="geometry" />
        </mxCell>
        <mxCell id="agDxDxOGez-dhJYS4ttz-106" value="&lt;span style=&quot;font-family: Helvetica; font-size: 12px; font-style: normal; font-variant-ligatures: normal; font-variant-caps: normal; font-weight: 700; letter-spacing: normal; orphans: 2; text-align: center; text-indent: 0px; text-transform: none; widows: 2; word-spacing: 0px; -webkit-text-stroke-width: 0px; background-color: rgb(248, 249, 250); text-decoration-thickness: initial; text-decoration-style: initial; text-decoration-color: initial; float: none; display: inline !important; color: rgb(0, 0, 0);&quot;&gt;+&lt;/span&gt;&lt;span style=&quot;font-family: Helvetica; font-size: 12px; font-style: normal; font-variant-ligatures: normal; font-variant-caps: normal; font-weight: 700; letter-spacing: normal; orphans: 2; text-align: center; text-indent: 0px; text-transform: none; widows: 2; word-spacing: 0px; -webkit-text-stroke-width: 0px; background-color: rgb(248, 249, 250); text-decoration-thickness: initial; text-decoration-style: initial; text-decoration-color: initial; float: none; display: inline !important;&quot;&gt;&lt;font color=&quot;#4c0099&quot;&gt;String &lt;/font&gt;&lt;font color=&quot;#000000&quot;&gt;nomeVendedor&lt;/font&gt;&lt;/span&gt;" style="text;whiteSpace=wrap;html=1;fontColor=#08000F;" parent="1" vertex="1">
          <mxGeometry x="493" y="612" width="170" height="24" as="geometry" />
        </mxCell>
        <mxCell id="agDxDxOGez-dhJYS4ttz-107" value="&lt;span style=&quot;font-family: Helvetica; font-size: 12px; font-style: normal; font-variant-ligatures: normal; font-variant-caps: normal; font-weight: 700; letter-spacing: normal; orphans: 2; text-align: center; text-indent: 0px; text-transform: none; widows: 2; word-spacing: 0px; -webkit-text-stroke-width: 0px; background-color: rgb(248, 249, 250); text-decoration-thickness: initial; text-decoration-style: initial; text-decoration-color: initial; float: none; display: inline !important; color: rgb(0, 0, 0);&quot;&gt;+&lt;/span&gt;&lt;span style=&quot;font-family: Helvetica; font-size: 12px; font-style: normal; font-variant-ligatures: normal; font-variant-caps: normal; font-weight: 700; letter-spacing: normal; orphans: 2; text-align: center; text-indent: 0px; text-transform: none; widows: 2; word-spacing: 0px; -webkit-text-stroke-width: 0px; background-color: rgb(248, 249, 250); text-decoration-thickness: initial; text-decoration-style: initial; text-decoration-color: initial; float: none; display: inline !important;&quot;&gt;&lt;font color=&quot;#4c0099&quot;&gt;String &lt;/font&gt;&lt;font color=&quot;#000000&quot;&gt;senhaVendedor&lt;/font&gt;&lt;/span&gt;" style="text;whiteSpace=wrap;html=1;fontColor=#08000F;" parent="1" vertex="1">
          <mxGeometry x="493" y="636" width="160" height="24" as="geometry" />
        </mxCell>
        <mxCell id="agDxDxOGez-dhJYS4ttz-82" value="&lt;span style=&quot;color: rgb(0, 0, 0); font-family: Helvetica; font-size: 12px; font-style: normal; font-variant-ligatures: normal; font-variant-caps: normal; font-weight: 700; letter-spacing: normal; orphans: 2; text-align: center; text-indent: 0px; text-transform: none; widows: 2; word-spacing: 0px; -webkit-text-stroke-width: 0px; background-color: rgb(248, 249, 250); text-decoration-thickness: initial; text-decoration-style: initial; text-decoration-color: initial; float: none; display: inline !important;&quot;&gt;+&lt;/span&gt;&lt;span style=&quot;font-family: Helvetica; font-size: 12px; font-style: normal; font-variant-ligatures: normal; font-variant-caps: normal; font-weight: 700; letter-spacing: normal; orphans: 2; text-align: center; text-indent: 0px; text-transform: none; widows: 2; word-spacing: 0px; -webkit-text-stroke-width: 0px; background-color: rgb(248, 249, 250); text-decoration-thickness: initial; text-decoration-style: initial; text-decoration-color: initial; float: none; display: inline !important;&quot;&gt;&lt;font color=&quot;#4c0099&quot;&gt;LocalDateTime&amp;nbsp;&lt;/font&gt;&lt;font color=&quot;#000000&quot;&gt;dataDeEmissao&lt;/font&gt;&lt;/span&gt;" style="text;whiteSpace=wrap;html=1;fontColor=#08000F;" parent="1" vertex="1">
          <mxGeometry x="494" y="589" width="144" height="24" as="geometry" />
        </mxCell>
        <mxCell id="NHJTBdeGV2len6277dxj-5" style="edgeStyle=orthogonalEdgeStyle;rounded=0;orthogonalLoop=1;jettySize=auto;html=1;exitX=1;exitY=0.75;exitDx=0;exitDy=0;entryX=0.75;entryY=1;entryDx=0;entryDy=0;" edge="1" parent="1" source="agDxDxOGez-dhJYS4ttz-1" target="cl13_IeFR8ZdHBrL8a40-1">
          <mxGeometry relative="1" as="geometry">
            <Array as="points">
              <mxPoint x="1000" y="272" />
              <mxPoint x="1000" y="950" />
              <mxPoint x="360" y="950" />
            </Array>
          </mxGeometry>
        </mxCell>
      </root>
    </mxGraphModel>
  </diagram>
</mxfile>
